<?xml version="1.0" encoding="utf-8"?>
<!-- Generator: Adobe Illustrator 16.0.0, SVG Export Plug-In . SVG Version: 6.00 Build 0)  -->
<!DOCTYPE svg PUBLIC "-//W3C//DTD SVG 1.1//EN" "http://www.w3.org/Graphics/SVG/1.1/DTD/svg11.dtd">
<svg version="1.1" id="Ebene_1" xmlns="http://www.w3.org/2000/svg" xmlns:xlink="http://www.w3.org/1999/xlink" x="0px" y="0px"
	 width="180px" height="83.905px" viewBox="0 0 180 83.905" enable-background="new 0 0 180 83.905" xml:space="preserve">
<text transform="matrix(1.035 0 0 1 32.0796 25.7578)" fill="#045D74" stroke="#045D74" stroke-width="0.25" stroke-miterlimit="10" font-family="'Capsuula'" font-size="29.7828">Magdalena</text>
<text transform="matrix(1.035 0 0 1 38.521 43.3564)" fill="#045D74" font-family="'Capsuula'" font-size="13">Michls Arbeitskollegen</text>
<text transform="matrix(1.035 0 0 1 14.9453 56.5264)"><tspan x="0" y="0" fill="#D09A37" font-family="'Capsuula'" font-size="11">Wie viel Text? Übrigens hasse ich Text  </tspan><tspan x="4.29" y="11" fill="#D09A37" font-family="'Capsuula'" font-size="11">im Illustrator, doch wegen dem SVG </tspan><tspan x="13.101" y="22" fill="#D09A37" font-family="'Capsuula'" font-size="11">muss ich im Illustrator arbeiten.</tspan></text>
<g>
	<polyline fill="none" stroke="#D09A37" stroke-width="0.766" points="-11.139,21.021 8.782,35.457 11.11,49.838 3.634,63.4 	"/>
	<polyline fill="none" stroke="#D09A37" stroke-width="0.766" points="-10.412,23.199 3.393,62.916 -10.896,53.23 	"/>
	<polyline fill="none" stroke="#D09A37" stroke-width="0.766" points="-12.349,49.355 9.024,35.457 -11.623,57.346 	"/>
	<g>
		<polyline fill="none" stroke="#D09A37" stroke-width="0.766" points="18.711,72.477 2.423,80.838 -16.224,101.42 		"/>
	</g>
	<polyline fill="none" stroke="#D09A37" stroke-width="0.766" points="-11.986,77.445 3.634,63.521 2.665,80.473 9.083,101.057 	"/>
	<polyline fill="none" stroke="#D09A37" stroke-width="0.766" points="-11.501,67.518 2.786,80.594 26.64,100.211 	"/>
	<polyline fill="none" stroke="#D09A37" stroke-width="0.766" points="-11.744,78.9 -6.294,100.693 18.469,72.719 34.333,99.605 	
		"/>
	<polyline fill="none" stroke="#D09A37" stroke-width="0.766" points="3.755,63.4 18.348,72.598 26.64,100.211 	"/>
</g>
<path fill="#045D74" d="M8.592,9.412c1.96,0.314,2.454-2.73,0.488-3.047C7.12,6.051,6.627,9.098,8.592,9.412"/>
<path fill="#D09A37" d="M3.853,5.646c0.98,0.158,1.226-1.363,0.244-1.521C3.115,3.967,2.871,5.49,3.853,5.646"/>
<path fill="#045D74" d="M8.983,3.066c0.982,0.158,1.227-1.365,0.244-1.523C8.247,1.387,8.002,2.908,8.983,3.066"/>
<path fill="#045D74" d="M10.934,6.506"/>
<path fill="#045D74" d="M10.934,6.506"/>
<path fill="#D09A37" d="M6.706,76.852c0.981,0.158,1.226-1.365,0.245-1.523C5.969,75.172,5.723,76.695,6.706,76.852"/>
<polyline fill="none" stroke="#045D74" stroke-width="0.975" points="188.583,54.98 165.736,37.669 162.835,23.064 172.223,8.044 
	139.772,-2.684 "/>
<polyline fill="none" stroke="#045D74" stroke-width="0.975" points="187.778,52.566 172.49,8.58 188.314,19.308 "/>
<polyline fill="none" stroke="#045D74" stroke-width="0.975" points="189.925,23.601 165.467,37.669 189.12,14.749 "/>
<polyline fill="none" stroke="#045D74" stroke-width="0.975" points="189.522,-7.511 172.223,7.91 173.296,-10.864 188.314,-79.99 
	"/>
<polyline fill="none" stroke="#045D74" stroke-width="0.975" points="172.089,8.044 158.141,-6.573 159.424,-50.043 
	202.499,-78.904 "/>
<path fill="#D09A37" d="M161.213,8.316c0,0.901,1.4,0.902,1.4,0S161.213,7.412,161.213,8.316"/>
<path fill="#D09A37" d="M147.615,4.807c0,0.901,1.402,0.902,1.402,0S147.615,3.903,147.615,4.807"/>
<path fill="#D09A37" d="M157.941,11.954c0,1.907,2.965,1.911,2.965,0C160.906,10.047,157.941,10.043,157.941,11.954"/>
<path fill="#045D74" d="M176.666,77.237c0.98,0.158,1.227-1.365,0.244-1.521C175.93,75.558,175.684,77.081,176.666,77.237"/>
</svg>
