<?xml version="1.0" encoding="utf-8"?>
<!-- Generator: Adobe Illustrator 16.0.0, SVG Export Plug-In . SVG Version: 6.00 Build 0)  -->
<!DOCTYPE svg PUBLIC "-//W3C//DTD SVG 1.1//EN" "http://www.w3.org/Graphics/SVG/1.1/DTD/svg11.dtd">
<svg version="1.1" id="Ebene_1" xmlns="http://www.w3.org/2000/svg" xmlns:xlink="http://www.w3.org/1999/xlink" x="0px" y="0px"
	 width="419.53px" height="595.28px" viewBox="0 0 419.53 595.28" enable-background="new 0 0 419.53 595.28" xml:space="preserve">
<g>
	<defs>
		<rect id="SVGID_1_" x="-745" y="-1464.71" width="1908.782" height="3525.99"/>
	</defs>
	<clipPath id="SVGID_2_">
		<use xlink:href="#SVGID_1_"  overflow="visible"/>
	</clipPath>
	<path clip-path="url(#SVGID_2_)" fill="#045D74" d="M-669.774,1984.594c1.9,0.335,2.424-2.617,0.521-2.953
		C-671.153,1981.306-671.677,1984.258-669.774,1984.594"/>
	<path clip-path="url(#SVGID_2_)" fill="#D09A37" d="M-690.784,1977.691c0.951,0.168,1.212-1.309,0.26-1.476
		C-691.474,1976.048-691.736,1977.523-690.784,1977.691"/>
	<path clip-path="url(#SVGID_2_)" fill="#045D74" d="M-669.297,1978.436c0.951,0.168,1.212-1.309,0.26-1.476
		C-669.987,1976.792-670.249,1978.268-669.297,1978.436"/>
	<path clip-path="url(#SVGID_2_)" fill="#045D74" d="M-667.455,1981.806c0.951,0.168,1.212-1.31,0.26-1.477
		C-668.146,1980.161-668.407,1981.637-667.455,1981.806"/>
	<path clip-path="url(#SVGID_2_)" fill="#D09A37" d="M-697.798,1995.028c0.95,0.167,1.212-1.31,0.26-1.477
		C-698.488,1993.384-698.75,1994.86-697.798,1995.028"/>
	<path clip-path="url(#SVGID_2_)" fill="#D09A37" d="M-499.363,1923.216c0,1.229,1.909,1.23,1.909,0
		C-497.454,1921.988-499.363,1921.986-499.363,1923.216"/>
	<path clip-path="url(#SVGID_2_)" fill="#D09A37" d="M-517.88,1918.437c0,1.229,1.908,1.23,1.908,0
		C-515.972,1917.209-517.88,1917.207-517.88,1918.437"/>
	<path clip-path="url(#SVGID_2_)" fill="#D09A37" d="M-503.817,1928.171c0,2.598,4.037,2.603,4.037,0
		C-499.78,1925.573-503.817,1925.569-503.817,1928.171"/>
</g>
<polyline fill="none" stroke="#D09A37" stroke-width="0.766" points="-729.995,1929.623 -705.59,1953.369 -698.334,1968.869 
	-709.877,1987.338 -656.449,2000.53 -627.427,2034.5 "/>
<polyline fill="none" stroke="#D09A37" stroke-width="0.766" points="-729.005,1932.591 -710.207,1986.678 -729.666,1973.487 "/>
<polyline fill="none" stroke="#D09A37" stroke-width="0.766" points="-731.644,1968.21 -705.26,1953.369 -730.655,1979.094 "/>
<polyline fill="none" stroke="#D09A37" stroke-width="0.766" points="-635.012,2040.766 -656.35,2001.355 -671.29,2041.59 "/>
<polyline fill="none" stroke="#D09A37" stroke-width="0.766" points="-686.461,2037.468 -657.109,2001.19 -692.068,2005.147 
	-711.526,2011.084 -736.921,2039.117 "/>
<polyline fill="none" stroke="#D09A37" stroke-width="0.766" points="-731.149,2006.467 -709.877,1987.503 -711.196,2010.589 
	-702.457,2038.623 "/>
<polyline fill="none" stroke="#D09A37" stroke-width="0.766" points="-730.49,1992.945 -711.032,2010.754 -678.546,2037.468 "/>
<polyline fill="none" stroke="#D09A37" stroke-width="0.766" points="-730.819,2008.445 -723.398,2038.128 -692.397,2005.478 
	-673.104,2014.712 -656.779,2000.86 "/>
<polyline fill="none" stroke="#D09A37" stroke-width="0.766" points="-709.712,1987.338 -692.562,2005.312 -666.673,2036.644 "/>
<polyline fill="none" stroke="#D09A37" stroke-width="0.766" points="-703.281,2036.149 -672.939,2016.361 -656.284,2041.92 "/>
<polyline fill="none" stroke="#D09A37" stroke-width="0.766" points="-431.533,1956.073 -463.483,2003.592 -441.308,1995.789 "/>
<polyline fill="none" stroke="#D09A37" stroke-width="0.766" points="-438.051,1991.189 -459.786,1970.121 -441.778,2001.463 "/>
<polyline fill="none" stroke="#D09A37" stroke-width="0.766" points="-549.971,2036.753 -519.302,2004.072 -515.098,2046.786 "/>
<g>
	<defs>
		<rect id="SVGID_3_" x="-745" y="-1464.71" width="1908.782" height="3525.99"/>
	</defs>
	<clipPath id="SVGID_4_">
		<use xlink:href="#SVGID_3_"  overflow="visible"/>
	</clipPath>
	<polyline clip-path="url(#SVGID_4_)" fill="none" stroke="#D09A37" stroke-width="0.766" points="-499.378,2046.662 
		-518.526,2004.106 -485.727,2016.834 -468.422,2027.529 -451.001,2061.104 	"/>
</g>
<polyline fill="none" stroke="#D09A37" stroke-width="0.766" points="-448.27,2028.061 -464.012,2004.306 -468.614,2026.966 
	-484.203,2051.851 "/>
<polyline fill="none" stroke="#D09A37" stroke-width="0.766" points="-445.465,2014.815 -468.815,2027.085 -507.032,2044.646 "/>
<polyline fill="none" stroke="#D09A37" stroke-width="0.766" points="-449.092,2029.89 -463.825,2056.705 -485.492,2017.236 
	-506.501,2021.255 -518.761,2003.704 "/>
<polyline fill="none" stroke="#D09A37" stroke-width="0.766" points="-464.13,2004.104 -485.291,2017.119 -518.304,2040.827 "/>
<polyline fill="none" stroke="#D09A37" stroke-width="0.766" points="-482.776,2049.669 -507.08,2022.808 -529.693,2043.285 "/>
<polyline fill="none" stroke="#D09A37" stroke-width="0.766" points="-463.971,2004.146 -518.996,2003.301 -580.59,2046.381 "/>
<polyline fill="none" stroke="#045D74" stroke-width="0.975" points="-462.088,1986.767 -489.117,1960.468 -497.153,1943.301 
	-484.369,1922.846 -543.541,1908.236 -581.724,1863.83 "/>
<polyline fill="none" stroke="#045D74" stroke-width="0.975" points="-463.184,1983.479 -484.004,1923.576 -462.453,1938.188 "/>
<polyline fill="none" stroke="#045D74" stroke-width="0.975" points="-460.262,1944.031 -489.482,1960.469 -461.357,1931.978 "/>
<polyline fill="none" stroke="#045D74" stroke-width="0.975" points="-567.284,1863.674 -543.651,1907.322 -527.104,1862.761 "/>
<polyline fill="none" stroke="#045D74" stroke-width="0.975" points="-510.303,1867.326 -542.811,1907.505 -504.094,1903.122 
	-482.543,1896.547 -454.418,1865.5 "/>
<polyline fill="none" stroke="#045D74" stroke-width="0.975" points="-460.81,1901.661 -484.368,1922.663 -482.907,1897.095 
	-492.588,1866.048 "/>
<polyline fill="none" stroke="#045D74" stroke-width="0.975" points="-461.54,1916.637 -483.09,1896.913 -519.069,1867.325 "/>
<polyline fill="none" stroke="#045D74" stroke-width="0.975" points="-461.175,1899.47 -469.393,1866.596 -503.728,1902.757 
	-525.096,1892.529 -543.176,1907.87 "/>
<polyline fill="none" stroke="#045D74" stroke-width="0.975" points="-484.552,1922.846 -503.546,1902.939 -532.219,1868.239 "/>
<polyline fill="none" stroke="#045D74" stroke-width="0.975" points="-491.674,1868.787 -525.278,1890.703 -543.724,1862.396 "/>
<g>
	<defs>
		<rect id="SVGID_5_" x="-745" y="-1464.71" width="1908.782" height="3525.99"/>
	</defs>
	<clipPath id="SVGID_6_">
		<use xlink:href="#SVGID_5_"  overflow="visible"/>
	</clipPath>
	<polyline clip-path="url(#SVGID_6_)" fill="none" stroke="#045D74" stroke-width="0.975" points="-744.747,1944.267 
		-712.494,1924.723 -700.803,1909.803 -708.658,1886.997 -647.716,1886.071 -600.522,1851.393 	"/>
</g>
<polyline fill="none" stroke="#045D74" stroke-width="0.975" points="-742.94,1941.311 -709.178,1887.626 -733.463,1897.014 "/>
<polyline fill="none" stroke="#045D74" stroke-width="0.975" points="-736.913,1902.216 -712.139,1924.805 -733.134,1890.718 "/>
<polyline fill="none" stroke="#045D74" stroke-width="0.975" points="-614.558,1847.992 -647.403,1885.206 -653.502,1838.064 "/>
<polyline fill="none" stroke="#045D74" stroke-width="0.975" points="-670.9,1838.732 -648.263,1885.195 -685.003,1872.215 
	-704.522,1860.961 -724.942,1824.382 "/>
<polyline fill="none" stroke="#045D74" stroke-width="0.975" points="-726.848,1861.055 -708.617,1886.818 -704.289,1861.576 
	-687.875,1833.503 "/>
<polyline fill="none" stroke="#045D74" stroke-width="0.975" points="-729.505,1875.811 -704.07,1861.439 -662.358,1840.704 "/>
<polyline fill="none" stroke="#045D74" stroke-width="0.975" points="-726,1859.001 -710.596,1828.819 -685.276,1871.777 
	-662.155,1866.618 -647.989,1885.633 "/>
<polyline fill="none" stroke="#045D74" stroke-width="0.975" points="-708.48,1887.037 -685.496,1871.913 -649.751,1844.553 "/>
<polyline fill="none" stroke="#045D74" stroke-width="0.975" points="-689.38,1835.966 -661.567,1864.879 -637.226,1841.446 "/>
<g>
	<defs>
		<rect id="SVGID_7_" x="-745" y="-1464.71" width="1908.782" height="3525.99"/>
	</defs>
	<clipPath id="SVGID_8_">
		<use xlink:href="#SVGID_7_"  overflow="visible"/>
	</clipPath>
	<path clip-path="url(#SVGID_8_)" fill="#D09A37" d="M-697.321,1897.622c2.368,0,2.372-3.68,0-3.68
		C-699.689,1893.942-699.693,1897.622-697.321,1897.622"/>
	<path clip-path="url(#SVGID_8_)" fill="#D09A37" d="M-696.585,1901.854c1.184,0,1.186-1.841,0-1.841
		C-697.769,1900.014-697.771,1901.854-696.585,1901.854"/>
	<path clip-path="url(#SVGID_8_)" fill="#D09A37" d="M-693.273,1891.55c1.184,0,1.186-1.84,0-1.84
		C-694.457,1889.71-694.459,1891.55-693.273,1891.55"/>
	<path clip-path="url(#SVGID_8_)" fill="#D09A37" d="M-673.032,1898.542c1.184,0,1.186-1.84,0-1.84
		C-674.216,1896.702-674.218,1898.542-673.032,1898.542"/>
	<path clip-path="url(#SVGID_8_)" fill="#D09A37" d="M-663.464,1911.055c1.184,0,1.186-1.841,0-1.841
		C-664.648,1909.214-664.65,1911.055-663.464,1911.055"/>
	<path clip-path="url(#SVGID_8_)" fill="#D09A37" d="M-522.229,2017.796c-2.501-0.296-2.967,3.591-0.46,3.888
		C-520.187,2021.979-519.723,2018.093-522.229,2017.796"/>
	<path clip-path="url(#SVGID_8_)" fill="#D09A37" d="M-522.478,2013.232c-1.251-0.147-1.482,1.796-0.229,1.944
		C-521.456,2015.324-521.225,2013.381-522.478,2013.232"/>
	<path clip-path="url(#SVGID_8_)" fill="#D09A37" d="M-527.265,2023.704c-1.251-0.147-1.483,1.796-0.23,1.944
		C-526.244,2025.797-526.012,2023.853-527.265,2023.704"/>
	<path clip-path="url(#SVGID_8_)" fill="#045D74" d="M-547.774,2013.787c-1.251-0.148-1.483,1.796-0.23,1.943
		C-546.753,2015.879-546.521,2013.935-547.774,2013.787"/>
	<path clip-path="url(#SVGID_8_)" fill="#045D74" d="M-556.317,1999.371c-1.251-0.147-1.483,1.796-0.23,1.944
		C-555.296,2001.464-555.064,1999.52-556.317,1999.371"/>
</g>
<g>
	<defs>
		<rect id="SVGID_9_" x="-745" y="-1464.71" width="1908.782" height="3525.99"/>
	</defs>
	<clipPath id="SVGID_10_">
		<use xlink:href="#SVGID_9_"  overflow="visible"/>
	</clipPath>
	<path clip-path="url(#SVGID_10_)" fill="#045D74" d="M-669.774,1984.594c1.9,0.335,2.424-2.617,0.521-2.953
		C-671.153,1981.306-671.677,1984.258-669.774,1984.594"/>
	<path clip-path="url(#SVGID_10_)" fill="#D09A37" d="M-690.784,1977.691c0.951,0.168,1.212-1.309,0.26-1.476
		C-691.474,1976.048-691.736,1977.523-690.784,1977.691"/>
	<path clip-path="url(#SVGID_10_)" fill="#045D74" d="M-669.297,1978.436c0.951,0.168,1.212-1.309,0.26-1.476
		C-669.987,1976.792-670.249,1978.268-669.297,1978.436"/>
	<path clip-path="url(#SVGID_10_)" fill="#045D74" d="M-667.455,1981.806c0.951,0.168,1.212-1.31,0.26-1.477
		C-668.146,1980.161-668.407,1981.637-667.455,1981.806"/>
	<path clip-path="url(#SVGID_10_)" fill="#D09A37" d="M-697.798,1995.028c0.95,0.167,1.212-1.31,0.26-1.477
		C-698.488,1993.384-698.75,1994.86-697.798,1995.028"/>
	<path clip-path="url(#SVGID_10_)" fill="#D09A37" d="M-499.363,1923.216c0,1.229,1.909,1.23,1.909,0
		C-497.454,1921.988-499.363,1921.986-499.363,1923.216"/>
	<path clip-path="url(#SVGID_10_)" fill="#D09A37" d="M-517.88,1918.437c0,1.229,1.908,1.23,1.908,0
		C-515.972,1917.209-517.88,1917.207-517.88,1918.437"/>
	<path clip-path="url(#SVGID_10_)" fill="#D09A37" d="M-503.817,1928.171c0,2.598,4.037,2.603,4.037,0
		C-499.78,1925.573-503.817,1925.569-503.817,1928.171"/>
</g>
<polyline fill="none" stroke="#D09A37" stroke-width="0.766" points="-729.995,1929.623 -705.59,1953.369 -698.334,1968.869 
	-709.877,1987.338 -656.449,2000.53 -627.427,2034.5 "/>
<polyline fill="none" stroke="#D09A37" stroke-width="0.766" points="-729.005,1932.591 -710.207,1986.678 -729.666,1973.487 "/>
<polyline fill="none" stroke="#D09A37" stroke-width="0.766" points="-731.644,1968.21 -705.26,1953.369 -730.655,1979.094 "/>
<polyline fill="none" stroke="#D09A37" stroke-width="0.766" points="-635.012,2040.766 -656.35,2001.355 -671.29,2041.59 "/>
<polyline fill="none" stroke="#D09A37" stroke-width="0.766" points="-686.461,2037.468 -657.109,2001.19 -692.068,2005.147 
	-711.526,2011.084 -736.921,2039.117 "/>
<polyline fill="none" stroke="#D09A37" stroke-width="0.766" points="-731.149,2006.467 -709.877,1987.503 -711.196,2010.589 
	-702.457,2038.623 "/>
<polyline fill="none" stroke="#D09A37" stroke-width="0.766" points="-730.49,1992.945 -711.032,2010.754 -678.546,2037.468 "/>
<polyline fill="none" stroke="#D09A37" stroke-width="0.766" points="-730.819,2008.445 -723.398,2038.128 -692.397,2005.478 
	-673.104,2014.712 -656.779,2000.86 "/>
<polyline fill="none" stroke="#D09A37" stroke-width="0.766" points="-709.712,1987.338 -692.562,2005.312 -666.673,2036.644 "/>
<polyline fill="none" stroke="#D09A37" stroke-width="0.766" points="-703.281,2036.149 -672.939,2016.361 -656.284,2041.92 "/>
<polyline fill="none" stroke="#D09A37" stroke-width="0.766" points="-431.533,1956.073 -463.483,2003.592 -441.308,1995.789 "/>
<polyline fill="none" stroke="#D09A37" stroke-width="0.766" points="-438.051,1991.189 -459.786,1970.121 -441.778,2001.463 "/>
<polyline fill="none" stroke="#D09A37" stroke-width="0.766" points="-549.971,2036.753 -519.302,2004.072 -515.098,2046.786 "/>
<g>
	<defs>
		<rect id="SVGID_11_" x="-745" y="-1464.71" width="1908.782" height="3525.99"/>
	</defs>
	<clipPath id="SVGID_12_">
		<use xlink:href="#SVGID_11_"  overflow="visible"/>
	</clipPath>
	<polyline clip-path="url(#SVGID_12_)" fill="none" stroke="#D09A37" stroke-width="0.766" points="-499.378,2046.662 
		-518.526,2004.106 -485.727,2016.834 -468.422,2027.529 -451.001,2061.104 	"/>
</g>
<polyline fill="none" stroke="#D09A37" stroke-width="0.766" points="-448.27,2028.061 -464.012,2004.306 -468.614,2026.966 
	-484.203,2051.851 "/>
<polyline fill="none" stroke="#D09A37" stroke-width="0.766" points="-445.465,2014.815 -468.815,2027.085 -507.032,2044.646 "/>
<polyline fill="none" stroke="#D09A37" stroke-width="0.766" points="-449.092,2029.89 -463.825,2056.705 -485.492,2017.236 
	-506.501,2021.255 -518.761,2003.704 "/>
<polyline fill="none" stroke="#D09A37" stroke-width="0.766" points="-464.13,2004.104 -485.291,2017.119 -518.304,2040.827 "/>
<polyline fill="none" stroke="#D09A37" stroke-width="0.766" points="-482.776,2049.669 -507.08,2022.808 -529.693,2043.285 "/>
<polyline fill="none" stroke="#D09A37" stroke-width="0.766" points="-463.971,2004.146 -518.996,2003.301 -580.59,2046.381 "/>
<polyline fill="none" stroke="#045D74" stroke-width="0.975" points="-462.088,1986.767 -489.117,1960.468 -497.153,1943.301 
	-484.369,1922.846 -543.541,1908.236 -581.724,1863.83 "/>
<polyline fill="none" stroke="#045D74" stroke-width="0.975" points="-463.184,1983.479 -484.004,1923.576 -462.453,1938.188 "/>
<polyline fill="none" stroke="#045D74" stroke-width="0.975" points="-460.262,1944.031 -489.482,1960.469 -461.357,1931.978 "/>
<polyline fill="none" stroke="#045D74" stroke-width="0.975" points="-567.284,1863.674 -543.651,1907.322 -527.104,1862.761 "/>
<polyline fill="none" stroke="#045D74" stroke-width="0.975" points="-510.303,1867.326 -542.811,1907.505 -504.094,1903.122 
	-482.543,1896.547 -454.418,1865.5 "/>
<polyline fill="none" stroke="#045D74" stroke-width="0.975" points="-460.81,1901.661 -484.368,1922.663 -482.907,1897.095 
	-492.588,1866.048 "/>
<polyline fill="none" stroke="#045D74" stroke-width="0.975" points="-461.54,1916.637 -483.09,1896.913 -519.069,1867.325 "/>
<polyline fill="none" stroke="#045D74" stroke-width="0.975" points="-461.175,1899.47 -469.393,1866.596 -503.728,1902.757 
	-525.096,1892.529 -543.176,1907.87 "/>
<polyline fill="none" stroke="#045D74" stroke-width="0.975" points="-484.552,1922.846 -503.546,1902.939 -532.219,1868.239 "/>
<polyline fill="none" stroke="#045D74" stroke-width="0.975" points="-491.674,1868.787 -525.278,1890.703 -543.724,1862.396 "/>
<g>
	<defs>
		<rect id="SVGID_13_" x="-745" y="-1464.71" width="1908.782" height="3525.99"/>
	</defs>
	<clipPath id="SVGID_14_">
		<use xlink:href="#SVGID_13_"  overflow="visible"/>
	</clipPath>
	<polyline clip-path="url(#SVGID_14_)" fill="none" stroke="#045D74" stroke-width="0.975" points="-744.747,1944.267 
		-712.494,1924.723 -700.803,1909.803 -708.658,1886.997 -647.716,1886.071 -600.522,1851.393 	"/>
</g>
<polyline fill="none" stroke="#045D74" stroke-width="0.975" points="-742.94,1941.311 -709.178,1887.626 -733.463,1897.014 "/>
<polyline fill="none" stroke="#045D74" stroke-width="0.975" points="-736.913,1902.216 -712.139,1924.805 -733.134,1890.718 "/>
<polyline fill="none" stroke="#045D74" stroke-width="0.975" points="-614.558,1847.992 -647.403,1885.206 -653.502,1838.064 "/>
<polyline fill="none" stroke="#045D74" stroke-width="0.975" points="-670.9,1838.732 -648.263,1885.195 -685.003,1872.215 
	-704.522,1860.961 -724.942,1824.382 "/>
<polyline fill="none" stroke="#045D74" stroke-width="0.975" points="-726.848,1861.055 -708.617,1886.818 -704.289,1861.576 
	-687.875,1833.503 "/>
<polyline fill="none" stroke="#045D74" stroke-width="0.975" points="-729.505,1875.811 -704.07,1861.439 -662.358,1840.704 "/>
<polyline fill="none" stroke="#045D74" stroke-width="0.975" points="-726,1859.001 -710.596,1828.819 -685.276,1871.777 
	-662.155,1866.618 -647.989,1885.633 "/>
<polyline fill="none" stroke="#045D74" stroke-width="0.975" points="-708.48,1887.037 -685.496,1871.913 -649.751,1844.553 "/>
<polyline fill="none" stroke="#045D74" stroke-width="0.975" points="-689.38,1835.966 -661.567,1864.879 -637.226,1841.446 "/>
<g>
	<defs>
		<rect id="SVGID_15_" x="-745" y="-1464.71" width="1908.782" height="3525.99"/>
	</defs>
	<clipPath id="SVGID_16_">
		<use xlink:href="#SVGID_15_"  overflow="visible"/>
	</clipPath>
	<path clip-path="url(#SVGID_16_)" fill="#D09A37" d="M-697.321,1897.622c2.368,0,2.372-3.68,0-3.68
		C-699.689,1893.942-699.693,1897.622-697.321,1897.622"/>
	<path clip-path="url(#SVGID_16_)" fill="#D09A37" d="M-696.585,1901.854c1.184,0,1.186-1.841,0-1.841
		C-697.769,1900.014-697.771,1901.854-696.585,1901.854"/>
	<path clip-path="url(#SVGID_16_)" fill="#D09A37" d="M-693.273,1891.55c1.184,0,1.186-1.84,0-1.84
		C-694.457,1889.71-694.459,1891.55-693.273,1891.55"/>
	<path clip-path="url(#SVGID_16_)" fill="#D09A37" d="M-673.032,1898.542c1.184,0,1.186-1.84,0-1.84
		C-674.216,1896.702-674.218,1898.542-673.032,1898.542"/>
	<path clip-path="url(#SVGID_16_)" fill="#D09A37" d="M-663.464,1911.055c1.184,0,1.186-1.841,0-1.841
		C-664.648,1909.214-664.65,1911.055-663.464,1911.055"/>
	<path clip-path="url(#SVGID_16_)" fill="#D09A37" d="M-522.229,2017.796c-2.501-0.296-2.967,3.591-0.46,3.888
		C-520.187,2021.979-519.723,2018.093-522.229,2017.796"/>
	<path clip-path="url(#SVGID_16_)" fill="#D09A37" d="M-522.478,2013.232c-1.251-0.147-1.482,1.796-0.229,1.944
		C-521.456,2015.324-521.225,2013.381-522.478,2013.232"/>
	<path clip-path="url(#SVGID_16_)" fill="#D09A37" d="M-527.265,2023.704c-1.251-0.147-1.483,1.796-0.23,1.944
		C-526.244,2025.797-526.012,2023.853-527.265,2023.704"/>
	<path clip-path="url(#SVGID_16_)" fill="#045D74" d="M-547.774,2013.787c-1.251-0.148-1.483,1.796-0.23,1.943
		C-546.753,2015.879-546.521,2013.935-547.774,2013.787"/>
	<path clip-path="url(#SVGID_16_)" fill="#045D74" d="M-556.317,1999.371c-1.251-0.147-1.483,1.796-0.23,1.944
		C-555.296,2001.464-555.064,1999.52-556.317,1999.371"/>
</g>
<g>
	<defs>
		<rect id="SVGID_17_" x="-745" y="-1464.71" width="1908.782" height="3525.99"/>
	</defs>
	<clipPath id="SVGID_18_">
		<use xlink:href="#SVGID_17_"  overflow="visible"/>
	</clipPath>
	<path clip-path="url(#SVGID_18_)" fill="#045D74" d="M-669.774,1984.594c1.9,0.335,2.424-2.617,0.521-2.953
		C-671.153,1981.306-671.677,1984.258-669.774,1984.594"/>
	<path clip-path="url(#SVGID_18_)" fill="#D09A37" d="M-690.784,1977.691c0.951,0.168,1.212-1.309,0.26-1.476
		C-691.474,1976.048-691.736,1977.523-690.784,1977.691"/>
	<path clip-path="url(#SVGID_18_)" fill="#045D74" d="M-669.297,1978.436c0.951,0.168,1.212-1.309,0.26-1.476
		C-669.987,1976.792-670.249,1978.268-669.297,1978.436"/>
	<path clip-path="url(#SVGID_18_)" fill="#045D74" d="M-667.455,1981.806c0.951,0.168,1.212-1.31,0.26-1.477
		C-668.146,1980.161-668.407,1981.637-667.455,1981.806"/>
	<path clip-path="url(#SVGID_18_)" fill="#D09A37" d="M-697.798,1995.028c0.95,0.167,1.212-1.31,0.26-1.477
		C-698.488,1993.384-698.75,1994.86-697.798,1995.028"/>
	<path clip-path="url(#SVGID_18_)" fill="#D09A37" d="M-499.363,1923.216c0,1.229,1.909,1.23,1.909,0
		C-497.454,1921.988-499.363,1921.986-499.363,1923.216"/>
	<path clip-path="url(#SVGID_18_)" fill="#D09A37" d="M-517.88,1918.437c0,1.229,1.908,1.23,1.908,0
		C-515.972,1917.209-517.88,1917.207-517.88,1918.437"/>
	<path clip-path="url(#SVGID_18_)" fill="#D09A37" d="M-503.817,1928.171c0,2.598,4.037,2.603,4.037,0
		C-499.78,1925.573-503.817,1925.569-503.817,1928.171"/>
</g>
<polyline fill="none" stroke="#D09A37" stroke-width="0.766" points="-729.995,1929.623 -705.59,1953.369 -698.334,1968.869 
	-709.877,1987.338 -656.449,2000.53 -627.427,2034.5 "/>
<polyline fill="none" stroke="#D09A37" stroke-width="0.766" points="-729.005,1932.591 -710.207,1986.678 -729.666,1973.487 "/>
<polyline fill="none" stroke="#D09A37" stroke-width="0.766" points="-731.644,1968.21 -705.26,1953.369 -730.655,1979.094 "/>
<polyline fill="none" stroke="#D09A37" stroke-width="0.766" points="-635.012,2040.766 -656.35,2001.355 -671.29,2041.59 "/>
<polyline fill="none" stroke="#D09A37" stroke-width="0.766" points="-686.461,2037.468 -657.109,2001.19 -692.068,2005.147 
	-711.526,2011.084 -736.921,2039.117 "/>
<polyline fill="none" stroke="#D09A37" stroke-width="0.766" points="-731.149,2006.467 -709.877,1987.503 -711.196,2010.589 
	-702.457,2038.623 "/>
<polyline fill="none" stroke="#D09A37" stroke-width="0.766" points="-730.49,1992.945 -711.032,2010.754 -678.546,2037.468 "/>
<polyline fill="none" stroke="#D09A37" stroke-width="0.766" points="-730.819,2008.445 -723.398,2038.128 -692.397,2005.478 
	-673.104,2014.712 -656.779,2000.86 "/>
<polyline fill="none" stroke="#D09A37" stroke-width="0.766" points="-709.712,1987.338 -692.562,2005.312 -666.673,2036.644 "/>
<polyline fill="none" stroke="#D09A37" stroke-width="0.766" points="-703.281,2036.149 -672.939,2016.361 -656.284,2041.92 "/>
<polyline fill="none" stroke="#D09A37" stroke-width="0.766" points="-431.533,1956.073 -463.483,2003.592 -441.308,1995.789 "/>
<polyline fill="none" stroke="#D09A37" stroke-width="0.766" points="-438.051,1991.189 -459.786,1970.121 -441.778,2001.463 "/>
<polyline fill="none" stroke="#D09A37" stroke-width="0.766" points="-549.971,2036.753 -519.302,2004.072 -515.098,2046.786 "/>
<g>
	<defs>
		<rect id="SVGID_19_" x="-745" y="-1464.71" width="1908.782" height="3525.99"/>
	</defs>
	<clipPath id="SVGID_20_">
		<use xlink:href="#SVGID_19_"  overflow="visible"/>
	</clipPath>
	<polyline clip-path="url(#SVGID_20_)" fill="none" stroke="#D09A37" stroke-width="0.766" points="-499.378,2046.662 
		-518.526,2004.106 -485.727,2016.834 -468.422,2027.529 -451.001,2061.104 	"/>
</g>
<polyline fill="none" stroke="#D09A37" stroke-width="0.766" points="-448.27,2028.061 -464.012,2004.306 -468.614,2026.966 
	-484.203,2051.851 "/>
<polyline fill="none" stroke="#D09A37" stroke-width="0.766" points="-445.465,2014.815 -468.815,2027.085 -507.032,2044.646 "/>
<polyline fill="none" stroke="#D09A37" stroke-width="0.766" points="-449.092,2029.89 -463.825,2056.705 -485.492,2017.236 
	-506.501,2021.255 -518.761,2003.704 "/>
<polyline fill="none" stroke="#D09A37" stroke-width="0.766" points="-464.13,2004.104 -485.291,2017.119 -518.304,2040.827 "/>
<polyline fill="none" stroke="#D09A37" stroke-width="0.766" points="-482.776,2049.669 -507.08,2022.808 -529.693,2043.285 "/>
<polyline fill="none" stroke="#D09A37" stroke-width="0.766" points="-463.971,2004.146 -518.996,2003.301 -580.59,2046.381 "/>
<polyline fill="none" stroke="#045D74" stroke-width="0.975" points="-462.088,1986.767 -489.117,1960.468 -497.153,1943.301 
	-484.369,1922.846 -543.541,1908.236 -581.724,1863.83 "/>
<polyline fill="none" stroke="#045D74" stroke-width="0.975" points="-463.184,1983.479 -484.004,1923.576 -462.453,1938.188 "/>
<polyline fill="none" stroke="#045D74" stroke-width="0.975" points="-460.262,1944.031 -489.482,1960.469 -461.357,1931.978 "/>
<polyline fill="none" stroke="#045D74" stroke-width="0.975" points="-567.284,1863.674 -543.651,1907.322 -527.104,1862.761 "/>
<polyline fill="none" stroke="#045D74" stroke-width="0.975" points="-510.303,1867.326 -542.811,1907.505 -504.094,1903.122 
	-482.543,1896.547 -454.418,1865.5 "/>
<polyline fill="none" stroke="#045D74" stroke-width="0.975" points="-460.81,1901.661 -484.368,1922.663 -482.907,1897.095 
	-492.588,1866.048 "/>
<polyline fill="none" stroke="#045D74" stroke-width="0.975" points="-461.54,1916.637 -483.09,1896.913 -519.069,1867.325 "/>
<polyline fill="none" stroke="#045D74" stroke-width="0.975" points="-461.175,1899.47 -469.393,1866.596 -503.728,1902.757 
	-525.096,1892.529 -543.176,1907.87 "/>
<polyline fill="none" stroke="#045D74" stroke-width="0.975" points="-484.552,1922.846 -503.546,1902.939 -532.219,1868.239 "/>
<polyline fill="none" stroke="#045D74" stroke-width="0.975" points="-491.674,1868.787 -525.278,1890.703 -543.724,1862.396 "/>
<g>
	<defs>
		<rect id="SVGID_21_" x="-745" y="-1464.71" width="1908.782" height="3525.99"/>
	</defs>
	<clipPath id="SVGID_22_">
		<use xlink:href="#SVGID_21_"  overflow="visible"/>
	</clipPath>
	<polyline clip-path="url(#SVGID_22_)" fill="none" stroke="#045D74" stroke-width="0.975" points="-744.747,1944.267 
		-712.494,1924.723 -700.803,1909.803 -708.658,1886.997 -647.716,1886.071 -600.522,1851.393 	"/>
</g>
<polyline fill="none" stroke="#045D74" stroke-width="0.975" points="-742.94,1941.311 -709.178,1887.626 -733.463,1897.014 "/>
<polyline fill="none" stroke="#045D74" stroke-width="0.975" points="-736.913,1902.216 -712.139,1924.805 -733.134,1890.718 "/>
<polyline fill="none" stroke="#045D74" stroke-width="0.975" points="-614.558,1847.992 -647.403,1885.206 -653.502,1838.064 "/>
<polyline fill="none" stroke="#045D74" stroke-width="0.975" points="-670.9,1838.732 -648.263,1885.195 -685.003,1872.215 
	-704.522,1860.961 -724.942,1824.382 "/>
<polyline fill="none" stroke="#045D74" stroke-width="0.975" points="-726.848,1861.055 -708.617,1886.818 -704.289,1861.576 
	-687.875,1833.503 "/>
<polyline fill="none" stroke="#045D74" stroke-width="0.975" points="-729.505,1875.811 -704.07,1861.439 -662.358,1840.704 "/>
<polyline fill="none" stroke="#045D74" stroke-width="0.975" points="-726,1859.001 -710.596,1828.819 -685.276,1871.777 
	-662.155,1866.618 -647.989,1885.633 "/>
<polyline fill="none" stroke="#045D74" stroke-width="0.975" points="-708.48,1887.037 -685.496,1871.913 -649.751,1844.553 "/>
<polyline fill="none" stroke="#045D74" stroke-width="0.975" points="-689.38,1835.966 -661.567,1864.879 -637.226,1841.446 "/>
<g>
	<defs>
		<rect id="SVGID_23_" x="-745" y="-1464.71" width="1908.782" height="3525.99"/>
	</defs>
	<clipPath id="SVGID_24_">
		<use xlink:href="#SVGID_23_"  overflow="visible"/>
	</clipPath>
	<path clip-path="url(#SVGID_24_)" fill="#D09A37" d="M-697.321,1897.622c2.368,0,2.372-3.68,0-3.68
		C-699.689,1893.942-699.693,1897.622-697.321,1897.622"/>
	<path clip-path="url(#SVGID_24_)" fill="#D09A37" d="M-696.585,1901.854c1.184,0,1.186-1.841,0-1.841
		C-697.769,1900.014-697.771,1901.854-696.585,1901.854"/>
	<path clip-path="url(#SVGID_24_)" fill="#D09A37" d="M-693.273,1891.55c1.184,0,1.186-1.84,0-1.84
		C-694.457,1889.71-694.459,1891.55-693.273,1891.55"/>
	<path clip-path="url(#SVGID_24_)" fill="#D09A37" d="M-673.032,1898.542c1.184,0,1.186-1.84,0-1.84
		C-674.216,1896.702-674.218,1898.542-673.032,1898.542"/>
	<path clip-path="url(#SVGID_24_)" fill="#D09A37" d="M-663.464,1911.055c1.184,0,1.186-1.841,0-1.841
		C-664.648,1909.214-664.65,1911.055-663.464,1911.055"/>
	<path clip-path="url(#SVGID_24_)" fill="#D09A37" d="M-522.229,2017.796c-2.501-0.296-2.967,3.591-0.46,3.888
		C-520.187,2021.979-519.723,2018.093-522.229,2017.796"/>
	<path clip-path="url(#SVGID_24_)" fill="#D09A37" d="M-522.478,2013.232c-1.251-0.147-1.482,1.796-0.229,1.944
		C-521.456,2015.324-521.225,2013.381-522.478,2013.232"/>
	<path clip-path="url(#SVGID_24_)" fill="#D09A37" d="M-527.265,2023.704c-1.251-0.147-1.483,1.796-0.23,1.944
		C-526.244,2025.797-526.012,2023.853-527.265,2023.704"/>
	<path clip-path="url(#SVGID_24_)" fill="#045D74" d="M-547.774,2013.787c-1.251-0.148-1.483,1.796-0.23,1.943
		C-546.753,2015.879-546.521,2013.935-547.774,2013.787"/>
	<path clip-path="url(#SVGID_24_)" fill="#045D74" d="M-556.317,1999.371c-1.251-0.147-1.483,1.796-0.23,1.944
		C-555.296,2001.464-555.064,1999.52-556.317,1999.371"/>
</g>
<g>
	<defs>
		<rect id="SVGID_25_" x="-745" y="-1464.71" width="1908.782" height="3525.99"/>
	</defs>
	<clipPath id="SVGID_26_">
		<use xlink:href="#SVGID_25_"  overflow="visible"/>
	</clipPath>
	<path clip-path="url(#SVGID_26_)" fill="#045D74" d="M-669.774,1984.594c1.9,0.335,2.424-2.617,0.521-2.953
		C-671.153,1981.306-671.677,1984.258-669.774,1984.594"/>
	<path clip-path="url(#SVGID_26_)" fill="#D09A37" d="M-690.784,1977.691c0.951,0.168,1.212-1.309,0.26-1.476
		C-691.474,1976.048-691.736,1977.523-690.784,1977.691"/>
	<path clip-path="url(#SVGID_26_)" fill="#045D74" d="M-669.297,1978.436c0.951,0.168,1.212-1.309,0.26-1.476
		C-669.987,1976.792-670.249,1978.268-669.297,1978.436"/>
	<path clip-path="url(#SVGID_26_)" fill="#045D74" d="M-667.455,1981.806c0.951,0.168,1.212-1.31,0.26-1.477
		C-668.146,1980.161-668.407,1981.637-667.455,1981.806"/>
	<path clip-path="url(#SVGID_26_)" fill="#D09A37" d="M-697.798,1995.028c0.95,0.167,1.212-1.31,0.26-1.477
		C-698.488,1993.384-698.75,1994.86-697.798,1995.028"/>
	<path clip-path="url(#SVGID_26_)" fill="#D09A37" d="M-499.363,1923.216c0,1.229,1.909,1.23,1.909,0
		C-497.454,1921.988-499.363,1921.986-499.363,1923.216"/>
	<path clip-path="url(#SVGID_26_)" fill="#D09A37" d="M-517.88,1918.437c0,1.229,1.908,1.23,1.908,0
		C-515.972,1917.209-517.88,1917.207-517.88,1918.437"/>
	<path clip-path="url(#SVGID_26_)" fill="#D09A37" d="M-503.817,1928.171c0,2.598,4.037,2.603,4.037,0
		C-499.78,1925.573-503.817,1925.569-503.817,1928.171"/>
</g>
<polyline fill="none" stroke="#D09A37" stroke-width="0.766" points="-729.995,1929.623 -705.59,1953.369 -698.334,1968.869 
	-709.877,1987.338 -656.449,2000.53 -627.427,2034.5 "/>
<polyline fill="none" stroke="#D09A37" stroke-width="0.766" points="-729.005,1932.591 -710.207,1986.678 -729.666,1973.487 "/>
<polyline fill="none" stroke="#D09A37" stroke-width="0.766" points="-731.644,1968.21 -705.26,1953.369 -730.655,1979.094 "/>
<polyline fill="none" stroke="#D09A37" stroke-width="0.766" points="-635.012,2040.766 -656.35,2001.355 -671.29,2041.59 "/>
<polyline fill="none" stroke="#D09A37" stroke-width="0.766" points="-686.461,2037.468 -657.109,2001.19 -692.068,2005.147 
	-711.526,2011.084 -736.921,2039.117 "/>
<polyline fill="none" stroke="#D09A37" stroke-width="0.766" points="-731.149,2006.467 -709.877,1987.503 -711.196,2010.589 
	-702.457,2038.623 "/>
<polyline fill="none" stroke="#D09A37" stroke-width="0.766" points="-730.49,1992.945 -711.032,2010.754 -678.546,2037.468 "/>
<polyline fill="none" stroke="#D09A37" stroke-width="0.766" points="-730.819,2008.445 -723.398,2038.128 -692.397,2005.478 
	-673.104,2014.712 -656.779,2000.86 "/>
<polyline fill="none" stroke="#D09A37" stroke-width="0.766" points="-709.712,1987.338 -692.562,2005.312 -666.673,2036.644 "/>
<polyline fill="none" stroke="#D09A37" stroke-width="0.766" points="-703.281,2036.149 -672.939,2016.361 -656.284,2041.92 "/>
<polyline fill="none" stroke="#D09A37" stroke-width="0.766" points="-431.533,1956.073 -463.483,2003.592 -441.308,1995.789 "/>
<polyline fill="none" stroke="#D09A37" stroke-width="0.766" points="-438.051,1991.189 -459.786,1970.121 -441.778,2001.463 "/>
<polyline fill="none" stroke="#D09A37" stroke-width="0.766" points="-549.971,2036.753 -519.302,2004.072 -515.098,2046.786 "/>
<g>
	<defs>
		<rect id="SVGID_27_" x="-745" y="-1464.71" width="1908.782" height="3525.99"/>
	</defs>
	<clipPath id="SVGID_28_">
		<use xlink:href="#SVGID_27_"  overflow="visible"/>
	</clipPath>
	<polyline clip-path="url(#SVGID_28_)" fill="none" stroke="#D09A37" stroke-width="0.766" points="-499.378,2046.662 
		-518.526,2004.106 -485.727,2016.834 -468.422,2027.529 -451.001,2061.104 	"/>
</g>
<polyline fill="none" stroke="#D09A37" stroke-width="0.766" points="-448.27,2028.061 -464.012,2004.306 -468.614,2026.966 
	-484.203,2051.851 "/>
<polyline fill="none" stroke="#D09A37" stroke-width="0.766" points="-445.465,2014.815 -468.815,2027.085 -507.032,2044.646 "/>
<polyline fill="none" stroke="#D09A37" stroke-width="0.766" points="-449.092,2029.89 -463.825,2056.705 -485.492,2017.236 
	-506.501,2021.255 -518.761,2003.704 "/>
<polyline fill="none" stroke="#D09A37" stroke-width="0.766" points="-464.13,2004.104 -485.291,2017.119 -518.304,2040.827 "/>
<polyline fill="none" stroke="#D09A37" stroke-width="0.766" points="-482.776,2049.669 -507.08,2022.808 -529.693,2043.285 "/>
<polyline fill="none" stroke="#D09A37" stroke-width="0.766" points="-463.971,2004.146 -518.996,2003.301 -580.59,2046.381 "/>
<polyline fill="none" stroke="#045D74" stroke-width="0.975" points="-462.088,1986.767 -489.117,1960.468 -497.153,1943.301 
	-484.369,1922.846 -543.541,1908.236 -581.724,1863.83 "/>
<polyline fill="none" stroke="#045D74" stroke-width="0.975" points="-463.184,1983.479 -484.004,1923.576 -462.453,1938.188 "/>
<polyline fill="none" stroke="#045D74" stroke-width="0.975" points="-460.262,1944.031 -489.482,1960.469 -461.357,1931.978 "/>
<polyline fill="none" stroke="#045D74" stroke-width="0.975" points="-567.284,1863.674 -543.651,1907.322 -527.104,1862.761 "/>
<polyline fill="none" stroke="#045D74" stroke-width="0.975" points="-510.303,1867.326 -542.811,1907.505 -504.094,1903.122 
	-482.543,1896.547 -454.418,1865.5 "/>
<polyline fill="none" stroke="#045D74" stroke-width="0.975" points="-460.81,1901.661 -484.368,1922.663 -482.907,1897.095 
	-492.588,1866.048 "/>
<polyline fill="none" stroke="#045D74" stroke-width="0.975" points="-461.54,1916.637 -483.09,1896.913 -519.069,1867.325 "/>
<polyline fill="none" stroke="#045D74" stroke-width="0.975" points="-461.175,1899.47 -469.393,1866.596 -503.728,1902.757 
	-525.096,1892.529 -543.176,1907.87 "/>
<polyline fill="none" stroke="#045D74" stroke-width="0.975" points="-484.552,1922.846 -503.546,1902.939 -532.219,1868.239 "/>
<polyline fill="none" stroke="#045D74" stroke-width="0.975" points="-491.674,1868.787 -525.278,1890.703 -543.724,1862.396 "/>
<g>
	<defs>
		<rect id="SVGID_29_" x="-745" y="-1464.71" width="1908.782" height="3525.99"/>
	</defs>
	<clipPath id="SVGID_30_">
		<use xlink:href="#SVGID_29_"  overflow="visible"/>
	</clipPath>
	<polyline clip-path="url(#SVGID_30_)" fill="none" stroke="#045D74" stroke-width="0.975" points="-744.747,1944.267 
		-712.494,1924.723 -700.803,1909.803 -708.658,1886.997 -647.716,1886.071 -600.522,1851.393 	"/>
</g>
<polyline fill="none" stroke="#045D74" stroke-width="0.975" points="-742.94,1941.311 -709.178,1887.626 -733.463,1897.014 "/>
<polyline fill="none" stroke="#045D74" stroke-width="0.975" points="-736.913,1902.216 -712.139,1924.805 -733.134,1890.718 "/>
<polyline fill="none" stroke="#045D74" stroke-width="0.975" points="-614.558,1847.992 -647.403,1885.206 -653.502,1838.064 "/>
<polyline fill="none" stroke="#045D74" stroke-width="0.975" points="-670.9,1838.732 -648.263,1885.195 -685.003,1872.215 
	-704.522,1860.961 -724.942,1824.382 "/>
<polyline fill="none" stroke="#045D74" stroke-width="0.975" points="-726.848,1861.055 -708.617,1886.818 -704.289,1861.576 
	-687.875,1833.503 "/>
<polyline fill="none" stroke="#045D74" stroke-width="0.975" points="-729.505,1875.811 -704.07,1861.439 -662.358,1840.704 "/>
<polyline fill="none" stroke="#045D74" stroke-width="0.975" points="-726,1859.001 -710.596,1828.819 -685.276,1871.777 
	-662.155,1866.618 -647.989,1885.633 "/>
<polyline fill="none" stroke="#045D74" stroke-width="0.975" points="-708.48,1887.037 -685.496,1871.913 -649.751,1844.553 "/>
<polyline fill="none" stroke="#045D74" stroke-width="0.975" points="-689.38,1835.966 -661.567,1864.879 -637.226,1841.446 "/>
<g>
	<defs>
		<rect id="SVGID_31_" x="-745" y="-1464.71" width="1908.782" height="3525.99"/>
	</defs>
	<clipPath id="SVGID_32_">
		<use xlink:href="#SVGID_31_"  overflow="visible"/>
	</clipPath>
	<path clip-path="url(#SVGID_32_)" fill="#D09A37" d="M-697.321,1897.622c2.368,0,2.372-3.68,0-3.68
		C-699.689,1893.942-699.693,1897.622-697.321,1897.622"/>
	<path clip-path="url(#SVGID_32_)" fill="#D09A37" d="M-696.585,1901.854c1.184,0,1.186-1.841,0-1.841
		C-697.769,1900.014-697.771,1901.854-696.585,1901.854"/>
	<path clip-path="url(#SVGID_32_)" fill="#D09A37" d="M-693.273,1891.55c1.184,0,1.186-1.84,0-1.84
		C-694.457,1889.71-694.459,1891.55-693.273,1891.55"/>
	<path clip-path="url(#SVGID_32_)" fill="#D09A37" d="M-673.032,1898.542c1.184,0,1.186-1.84,0-1.84
		C-674.216,1896.702-674.218,1898.542-673.032,1898.542"/>
	<path clip-path="url(#SVGID_32_)" fill="#D09A37" d="M-663.464,1911.055c1.184,0,1.186-1.841,0-1.841
		C-664.648,1909.214-664.65,1911.055-663.464,1911.055"/>
	<path clip-path="url(#SVGID_32_)" fill="#D09A37" d="M-522.229,2017.796c-2.501-0.296-2.967,3.591-0.46,3.888
		C-520.187,2021.979-519.723,2018.093-522.229,2017.796"/>
	<path clip-path="url(#SVGID_32_)" fill="#D09A37" d="M-522.478,2013.232c-1.251-0.147-1.482,1.796-0.229,1.944
		C-521.456,2015.324-521.225,2013.381-522.478,2013.232"/>
	<path clip-path="url(#SVGID_32_)" fill="#D09A37" d="M-527.265,2023.704c-1.251-0.147-1.483,1.796-0.23,1.944
		C-526.244,2025.797-526.012,2023.853-527.265,2023.704"/>
	<path clip-path="url(#SVGID_32_)" fill="#045D74" d="M-547.774,2013.787c-1.251-0.148-1.483,1.796-0.23,1.943
		C-546.753,2015.879-546.521,2013.935-547.774,2013.787"/>
	<path clip-path="url(#SVGID_32_)" fill="#045D74" d="M-556.317,1999.371c-1.251-0.147-1.483,1.796-0.23,1.944
		C-555.296,2001.464-555.064,1999.52-556.317,1999.371"/>
</g>
<g>
	<defs>
		<rect id="SVGID_33_" x="-745" y="-1464.71" width="1908.782" height="3525.99"/>
	</defs>
	<clipPath id="SVGID_34_">
		<use xlink:href="#SVGID_33_"  overflow="visible"/>
	</clipPath>
	<path clip-path="url(#SVGID_34_)" fill="#045D74" d="M-669.774,1984.594c1.9,0.335,2.424-2.617,0.521-2.953
		C-671.153,1981.306-671.677,1984.258-669.774,1984.594"/>
	<path clip-path="url(#SVGID_34_)" fill="#D09A37" d="M-690.784,1977.691c0.951,0.168,1.212-1.309,0.26-1.476
		C-691.474,1976.048-691.736,1977.523-690.784,1977.691"/>
	<path clip-path="url(#SVGID_34_)" fill="#045D74" d="M-669.297,1978.436c0.951,0.168,1.212-1.309,0.26-1.476
		C-669.987,1976.792-670.249,1978.268-669.297,1978.436"/>
	<path clip-path="url(#SVGID_34_)" fill="#045D74" d="M-667.455,1981.806c0.951,0.168,1.212-1.31,0.26-1.477
		C-668.146,1980.161-668.407,1981.637-667.455,1981.806"/>
	<path clip-path="url(#SVGID_34_)" fill="#D09A37" d="M-697.798,1995.028c0.95,0.167,1.212-1.31,0.26-1.477
		C-698.488,1993.384-698.75,1994.86-697.798,1995.028"/>
	<path clip-path="url(#SVGID_34_)" fill="#D09A37" d="M-499.363,1923.216c0,1.229,1.909,1.23,1.909,0
		C-497.454,1921.988-499.363,1921.986-499.363,1923.216"/>
	<path clip-path="url(#SVGID_34_)" fill="#D09A37" d="M-517.88,1918.437c0,1.229,1.908,1.23,1.908,0
		C-515.972,1917.209-517.88,1917.207-517.88,1918.437"/>
	<path clip-path="url(#SVGID_34_)" fill="#D09A37" d="M-503.817,1928.171c0,2.598,4.037,2.603,4.037,0
		C-499.78,1925.573-503.817,1925.569-503.817,1928.171"/>
</g>
<polyline fill="none" stroke="#D09A37" stroke-width="0.766" points="-729.995,1929.623 -705.59,1953.369 -698.334,1968.869 
	-709.877,1987.338 -656.449,2000.53 -627.427,2034.5 "/>
<polyline fill="none" stroke="#D09A37" stroke-width="0.766" points="-729.005,1932.591 -710.207,1986.678 -729.666,1973.487 "/>
<polyline fill="none" stroke="#D09A37" stroke-width="0.766" points="-731.644,1968.21 -705.26,1953.369 -730.655,1979.094 "/>
<polyline fill="none" stroke="#D09A37" stroke-width="0.766" points="-635.012,2040.766 -656.35,2001.355 -671.29,2041.59 "/>
<polyline fill="none" stroke="#D09A37" stroke-width="0.766" points="-686.461,2037.468 -657.109,2001.19 -692.068,2005.147 
	-711.526,2011.084 -736.921,2039.117 "/>
<polyline fill="none" stroke="#D09A37" stroke-width="0.766" points="-731.149,2006.467 -709.877,1987.503 -711.196,2010.589 
	-702.457,2038.623 "/>
<polyline fill="none" stroke="#D09A37" stroke-width="0.766" points="-730.49,1992.945 -711.032,2010.754 -678.546,2037.468 "/>
<polyline fill="none" stroke="#D09A37" stroke-width="0.766" points="-730.819,2008.445 -723.398,2038.128 -692.397,2005.478 
	-673.104,2014.712 -656.779,2000.86 "/>
<polyline fill="none" stroke="#D09A37" stroke-width="0.766" points="-709.712,1987.338 -692.562,2005.312 -666.673,2036.644 "/>
<polyline fill="none" stroke="#D09A37" stroke-width="0.766" points="-703.281,2036.149 -672.939,2016.361 -656.284,2041.92 "/>
<polyline fill="none" stroke="#D09A37" stroke-width="0.766" points="-431.533,1956.073 -463.483,2003.592 -441.308,1995.789 "/>
<polyline fill="none" stroke="#D09A37" stroke-width="0.766" points="-438.051,1991.189 -459.786,1970.121 -441.778,2001.463 "/>
<polyline fill="none" stroke="#D09A37" stroke-width="0.766" points="-549.971,2036.753 -519.302,2004.072 -515.098,2046.786 "/>
<g>
	<defs>
		<rect id="SVGID_35_" x="-745" y="-1464.71" width="1908.782" height="3525.99"/>
	</defs>
	<clipPath id="SVGID_36_">
		<use xlink:href="#SVGID_35_"  overflow="visible"/>
	</clipPath>
	<polyline clip-path="url(#SVGID_36_)" fill="none" stroke="#D09A37" stroke-width="0.766" points="-499.378,2046.662 
		-518.526,2004.106 -485.727,2016.834 -468.422,2027.529 -451.001,2061.104 	"/>
</g>
<polyline fill="none" stroke="#D09A37" stroke-width="0.766" points="-448.27,2028.061 -464.012,2004.306 -468.614,2026.966 
	-484.203,2051.851 "/>
<polyline fill="none" stroke="#D09A37" stroke-width="0.766" points="-445.465,2014.815 -468.815,2027.085 -507.032,2044.646 "/>
<polyline fill="none" stroke="#D09A37" stroke-width="0.766" points="-449.092,2029.89 -463.825,2056.705 -485.492,2017.236 
	-506.501,2021.255 -518.761,2003.704 "/>
<polyline fill="none" stroke="#D09A37" stroke-width="0.766" points="-464.13,2004.104 -485.291,2017.119 -518.304,2040.827 "/>
<polyline fill="none" stroke="#D09A37" stroke-width="0.766" points="-482.776,2049.669 -507.08,2022.808 -529.693,2043.285 "/>
<polyline fill="none" stroke="#D09A37" stroke-width="0.766" points="-463.971,2004.146 -518.996,2003.301 -580.59,2046.381 "/>
<polyline fill="none" stroke="#045D74" stroke-width="0.975" points="-462.088,1986.767 -489.117,1960.468 -497.153,1943.301 
	-484.369,1922.846 -543.541,1908.236 -581.724,1863.83 "/>
<polyline fill="none" stroke="#045D74" stroke-width="0.975" points="-463.184,1983.479 -484.004,1923.576 -462.453,1938.188 "/>
<polyline fill="none" stroke="#045D74" stroke-width="0.975" points="-460.262,1944.031 -489.482,1960.469 -461.357,1931.978 "/>
<polyline fill="none" stroke="#045D74" stroke-width="0.975" points="-567.284,1863.674 -543.651,1907.322 -527.104,1862.761 "/>
<polyline fill="none" stroke="#045D74" stroke-width="0.975" points="-510.303,1867.326 -542.811,1907.505 -504.094,1903.122 
	-482.543,1896.547 -454.418,1865.5 "/>
<polyline fill="none" stroke="#045D74" stroke-width="0.975" points="-460.81,1901.661 -484.368,1922.663 -482.907,1897.095 
	-492.588,1866.048 "/>
<polyline fill="none" stroke="#045D74" stroke-width="0.975" points="-461.54,1916.637 -483.09,1896.913 -519.069,1867.325 "/>
<polyline fill="none" stroke="#045D74" stroke-width="0.975" points="-461.175,1899.47 -469.393,1866.596 -503.728,1902.757 
	-525.096,1892.529 -543.176,1907.87 "/>
<polyline fill="none" stroke="#045D74" stroke-width="0.975" points="-484.552,1922.846 -503.546,1902.939 -532.219,1868.239 "/>
<polyline fill="none" stroke="#045D74" stroke-width="0.975" points="-491.674,1868.787 -525.278,1890.703 -543.724,1862.396 "/>
<g>
	<defs>
		<rect id="SVGID_37_" x="-745" y="-1464.71" width="1908.782" height="3525.99"/>
	</defs>
	<clipPath id="SVGID_38_">
		<use xlink:href="#SVGID_37_"  overflow="visible"/>
	</clipPath>
	<polyline clip-path="url(#SVGID_38_)" fill="none" stroke="#045D74" stroke-width="0.975" points="-744.747,1944.267 
		-712.494,1924.723 -700.803,1909.803 -708.658,1886.997 -647.716,1886.071 -600.522,1851.393 	"/>
</g>
<polyline fill="none" stroke="#045D74" stroke-width="0.975" points="-742.94,1941.311 -709.178,1887.626 -733.463,1897.014 "/>
<polyline fill="none" stroke="#045D74" stroke-width="0.975" points="-736.913,1902.216 -712.139,1924.805 -733.134,1890.718 "/>
<polyline fill="none" stroke="#045D74" stroke-width="0.975" points="-614.558,1847.992 -647.403,1885.206 -653.502,1838.064 "/>
<polyline fill="none" stroke="#045D74" stroke-width="0.975" points="-670.9,1838.732 -648.263,1885.195 -685.003,1872.215 
	-704.522,1860.961 -724.942,1824.382 "/>
<polyline fill="none" stroke="#045D74" stroke-width="0.975" points="-726.848,1861.055 -708.617,1886.818 -704.289,1861.576 
	-687.875,1833.503 "/>
<polyline fill="none" stroke="#045D74" stroke-width="0.975" points="-729.505,1875.811 -704.07,1861.439 -662.358,1840.704 "/>
<polyline fill="none" stroke="#045D74" stroke-width="0.975" points="-726,1859.001 -710.596,1828.819 -685.276,1871.777 
	-662.155,1866.618 -647.989,1885.633 "/>
<polyline fill="none" stroke="#045D74" stroke-width="0.975" points="-708.48,1887.037 -685.496,1871.913 -649.751,1844.553 "/>
<polyline fill="none" stroke="#045D74" stroke-width="0.975" points="-689.38,1835.966 -661.567,1864.879 -637.226,1841.446 "/>
<g>
	<defs>
		<rect id="SVGID_39_" x="-745" y="-1464.71" width="1908.782" height="3525.99"/>
	</defs>
	<clipPath id="SVGID_40_">
		<use xlink:href="#SVGID_39_"  overflow="visible"/>
	</clipPath>
	<path clip-path="url(#SVGID_40_)" fill="#D09A37" d="M-697.321,1897.622c2.368,0,2.372-3.68,0-3.68
		C-699.689,1893.942-699.693,1897.622-697.321,1897.622"/>
	<path clip-path="url(#SVGID_40_)" fill="#D09A37" d="M-696.585,1901.854c1.184,0,1.186-1.841,0-1.841
		C-697.769,1900.014-697.771,1901.854-696.585,1901.854"/>
	<path clip-path="url(#SVGID_40_)" fill="#D09A37" d="M-693.273,1891.55c1.184,0,1.186-1.84,0-1.84
		C-694.457,1889.71-694.459,1891.55-693.273,1891.55"/>
	<path clip-path="url(#SVGID_40_)" fill="#D09A37" d="M-673.032,1898.542c1.184,0,1.186-1.84,0-1.84
		C-674.216,1896.702-674.218,1898.542-673.032,1898.542"/>
	<path clip-path="url(#SVGID_40_)" fill="#D09A37" d="M-663.464,1911.055c1.184,0,1.186-1.841,0-1.841
		C-664.648,1909.214-664.65,1911.055-663.464,1911.055"/>
	<path clip-path="url(#SVGID_40_)" fill="#D09A37" d="M-522.229,2017.796c-2.501-0.296-2.967,3.591-0.46,3.888
		C-520.187,2021.979-519.723,2018.093-522.229,2017.796"/>
	<path clip-path="url(#SVGID_40_)" fill="#D09A37" d="M-522.478,2013.232c-1.251-0.147-1.482,1.796-0.229,1.944
		C-521.456,2015.324-521.225,2013.381-522.478,2013.232"/>
	<path clip-path="url(#SVGID_40_)" fill="#D09A37" d="M-527.265,2023.704c-1.251-0.147-1.483,1.796-0.23,1.944
		C-526.244,2025.797-526.012,2023.853-527.265,2023.704"/>
	<path clip-path="url(#SVGID_40_)" fill="#045D74" d="M-547.774,2013.787c-1.251-0.148-1.483,1.796-0.23,1.943
		C-546.753,2015.879-546.521,2013.935-547.774,2013.787"/>
	<path clip-path="url(#SVGID_40_)" fill="#045D74" d="M-556.317,1999.371c-1.251-0.147-1.483,1.796-0.23,1.944
		C-555.296,2001.464-555.064,1999.52-556.317,1999.371"/>
</g>
<g>
	<defs>
		<rect id="SVGID_41_" x="-745" y="-1464.71" width="1908.782" height="3525.99"/>
	</defs>
	<clipPath id="SVGID_42_">
		<use xlink:href="#SVGID_41_"  overflow="visible"/>
	</clipPath>
	<path clip-path="url(#SVGID_42_)" fill="#045D74" d="M-669.774,1984.594c1.9,0.335,2.424-2.617,0.521-2.953
		C-671.153,1981.306-671.677,1984.258-669.774,1984.594"/>
	<path clip-path="url(#SVGID_42_)" fill="#D09A37" d="M-690.784,1977.691c0.951,0.168,1.212-1.309,0.26-1.476
		C-691.474,1976.048-691.736,1977.523-690.784,1977.691"/>
	<path clip-path="url(#SVGID_42_)" fill="#045D74" d="M-669.297,1978.436c0.951,0.168,1.212-1.309,0.26-1.476
		C-669.987,1976.792-670.249,1978.268-669.297,1978.436"/>
	<path clip-path="url(#SVGID_42_)" fill="#045D74" d="M-667.455,1981.806c0.951,0.168,1.212-1.31,0.26-1.477
		C-668.146,1980.161-668.407,1981.637-667.455,1981.806"/>
	<path clip-path="url(#SVGID_42_)" fill="#D09A37" d="M-697.798,1995.028c0.95,0.167,1.212-1.31,0.26-1.477
		C-698.488,1993.384-698.75,1994.86-697.798,1995.028"/>
	<path clip-path="url(#SVGID_42_)" fill="#D09A37" d="M-499.363,1923.216c0,1.229,1.909,1.23,1.909,0
		C-497.454,1921.988-499.363,1921.986-499.363,1923.216"/>
	<path clip-path="url(#SVGID_42_)" fill="#D09A37" d="M-517.88,1918.437c0,1.229,1.908,1.23,1.908,0
		C-515.972,1917.209-517.88,1917.207-517.88,1918.437"/>
	<path clip-path="url(#SVGID_42_)" fill="#D09A37" d="M-503.817,1928.171c0,2.598,4.037,2.603,4.037,0
		C-499.78,1925.573-503.817,1925.569-503.817,1928.171"/>
</g>
<polyline fill="none" stroke="#D09A37" stroke-width="0.766" points="-729.995,1929.623 -705.59,1953.369 -698.334,1968.869 
	-709.877,1987.338 -656.449,2000.53 -627.427,2034.5 "/>
<polyline fill="none" stroke="#D09A37" stroke-width="0.766" points="-729.005,1932.591 -710.207,1986.678 -729.666,1973.487 "/>
<polyline fill="none" stroke="#D09A37" stroke-width="0.766" points="-731.644,1968.21 -705.26,1953.369 -730.655,1979.094 "/>
<polyline fill="none" stroke="#D09A37" stroke-width="0.766" points="-635.012,2040.766 -656.35,2001.355 -671.29,2041.59 "/>
<polyline fill="none" stroke="#D09A37" stroke-width="0.766" points="-686.461,2037.468 -657.109,2001.19 -692.068,2005.147 
	-711.526,2011.084 -736.921,2039.117 "/>
<polyline fill="none" stroke="#D09A37" stroke-width="0.766" points="-731.149,2006.467 -709.877,1987.503 -711.196,2010.589 
	-702.457,2038.623 "/>
<polyline fill="none" stroke="#D09A37" stroke-width="0.766" points="-730.49,1992.945 -711.032,2010.754 -678.546,2037.468 "/>
<polyline fill="none" stroke="#D09A37" stroke-width="0.766" points="-730.819,2008.445 -723.398,2038.128 -692.397,2005.478 
	-673.104,2014.712 -656.779,2000.86 "/>
<polyline fill="none" stroke="#D09A37" stroke-width="0.766" points="-709.712,1987.338 -692.562,2005.312 -666.673,2036.644 "/>
<polyline fill="none" stroke="#D09A37" stroke-width="0.766" points="-703.281,2036.149 -672.939,2016.361 -656.284,2041.92 "/>
<polyline fill="none" stroke="#D09A37" stroke-width="0.766" points="-431.533,1956.073 -463.483,2003.592 -441.308,1995.789 "/>
<polyline fill="none" stroke="#D09A37" stroke-width="0.766" points="-438.051,1991.189 -459.786,1970.121 -441.778,2001.463 "/>
<polyline fill="none" stroke="#D09A37" stroke-width="0.766" points="-549.971,2036.753 -519.302,2004.072 -515.098,2046.786 "/>
<g>
	<defs>
		<rect id="SVGID_43_" x="-745" y="-1464.71" width="1908.782" height="3525.99"/>
	</defs>
	<clipPath id="SVGID_44_">
		<use xlink:href="#SVGID_43_"  overflow="visible"/>
	</clipPath>
	<polyline clip-path="url(#SVGID_44_)" fill="none" stroke="#D09A37" stroke-width="0.766" points="-499.378,2046.662 
		-518.526,2004.106 -485.727,2016.834 -468.422,2027.529 -451.001,2061.104 	"/>
</g>
<polyline fill="none" stroke="#D09A37" stroke-width="0.766" points="-448.27,2028.061 -464.012,2004.306 -468.614,2026.966 
	-484.203,2051.851 "/>
<polyline fill="none" stroke="#D09A37" stroke-width="0.766" points="-445.465,2014.815 -468.815,2027.085 -507.032,2044.646 "/>
<polyline fill="none" stroke="#D09A37" stroke-width="0.766" points="-449.092,2029.89 -463.825,2056.705 -485.492,2017.236 
	-506.501,2021.255 -518.761,2003.704 "/>
<polyline fill="none" stroke="#D09A37" stroke-width="0.766" points="-464.13,2004.104 -485.291,2017.119 -518.304,2040.827 "/>
<polyline fill="none" stroke="#D09A37" stroke-width="0.766" points="-482.776,2049.669 -507.08,2022.808 -529.693,2043.285 "/>
<polyline fill="none" stroke="#D09A37" stroke-width="0.766" points="-463.971,2004.146 -518.996,2003.301 -580.59,2046.381 "/>
<polyline fill="none" stroke="#045D74" stroke-width="0.975" points="-462.088,1986.767 -489.117,1960.468 -497.153,1943.301 
	-484.369,1922.846 -543.541,1908.236 -581.724,1863.83 "/>
<polyline fill="none" stroke="#045D74" stroke-width="0.975" points="-463.184,1983.479 -484.004,1923.576 -462.453,1938.188 "/>
<polyline fill="none" stroke="#045D74" stroke-width="0.975" points="-460.262,1944.031 -489.482,1960.469 -461.357,1931.978 "/>
<polyline fill="none" stroke="#045D74" stroke-width="0.975" points="-567.284,1863.674 -543.651,1907.322 -527.104,1862.761 "/>
<polyline fill="none" stroke="#045D74" stroke-width="0.975" points="-510.303,1867.326 -542.811,1907.505 -504.094,1903.122 
	-482.543,1896.547 -454.418,1865.5 "/>
<polyline fill="none" stroke="#045D74" stroke-width="0.975" points="-460.81,1901.661 -484.368,1922.663 -482.907,1897.095 
	-492.588,1866.048 "/>
<polyline fill="none" stroke="#045D74" stroke-width="0.975" points="-461.54,1916.637 -483.09,1896.913 -519.069,1867.325 "/>
<polyline fill="none" stroke="#045D74" stroke-width="0.975" points="-461.175,1899.47 -469.393,1866.596 -503.728,1902.757 
	-525.096,1892.529 -543.176,1907.87 "/>
<polyline fill="none" stroke="#045D74" stroke-width="0.975" points="-484.552,1922.846 -503.546,1902.939 -532.219,1868.239 "/>
<polyline fill="none" stroke="#045D74" stroke-width="0.975" points="-491.674,1868.787 -525.278,1890.703 -543.724,1862.396 "/>
<g>
	<defs>
		<rect id="SVGID_45_" x="-745" y="-1464.71" width="1908.782" height="3525.99"/>
	</defs>
	<clipPath id="SVGID_46_">
		<use xlink:href="#SVGID_45_"  overflow="visible"/>
	</clipPath>
	<polyline clip-path="url(#SVGID_46_)" fill="none" stroke="#045D74" stroke-width="0.975" points="-744.747,1944.267 
		-712.494,1924.723 -700.803,1909.803 -708.658,1886.997 -647.716,1886.071 -600.522,1851.393 	"/>
</g>
<polyline fill="none" stroke="#045D74" stroke-width="0.975" points="-742.94,1941.311 -709.178,1887.626 -733.463,1897.014 "/>
<polyline fill="none" stroke="#045D74" stroke-width="0.975" points="-736.913,1902.216 -712.139,1924.805 -733.134,1890.718 "/>
<polyline fill="none" stroke="#045D74" stroke-width="0.975" points="-614.558,1847.992 -647.403,1885.206 -653.502,1838.064 "/>
<polyline fill="none" stroke="#045D74" stroke-width="0.975" points="-670.9,1838.732 -648.263,1885.195 -685.003,1872.215 
	-704.522,1860.961 -724.942,1824.382 "/>
<polyline fill="none" stroke="#045D74" stroke-width="0.975" points="-726.848,1861.055 -708.617,1886.818 -704.289,1861.576 
	-687.875,1833.503 "/>
<polyline fill="none" stroke="#045D74" stroke-width="0.975" points="-729.505,1875.811 -704.07,1861.439 -662.358,1840.704 "/>
<polyline fill="none" stroke="#045D74" stroke-width="0.975" points="-726,1859.001 -710.596,1828.819 -685.276,1871.777 
	-662.155,1866.618 -647.989,1885.633 "/>
<polyline fill="none" stroke="#045D74" stroke-width="0.975" points="-708.48,1887.037 -685.496,1871.913 -649.751,1844.553 "/>
<polyline fill="none" stroke="#045D74" stroke-width="0.975" points="-689.38,1835.966 -661.567,1864.879 -637.226,1841.446 "/>
<g>
	<defs>
		<rect id="SVGID_47_" x="-745" y="-1464.71" width="1908.782" height="3525.99"/>
	</defs>
	<clipPath id="SVGID_48_">
		<use xlink:href="#SVGID_47_"  overflow="visible"/>
	</clipPath>
	<path clip-path="url(#SVGID_48_)" fill="#D09A37" d="M-697.321,1897.622c2.368,0,2.372-3.68,0-3.68
		C-699.689,1893.942-699.693,1897.622-697.321,1897.622"/>
	<path clip-path="url(#SVGID_48_)" fill="#D09A37" d="M-696.585,1901.854c1.184,0,1.186-1.841,0-1.841
		C-697.769,1900.014-697.771,1901.854-696.585,1901.854"/>
	<path clip-path="url(#SVGID_48_)" fill="#D09A37" d="M-693.273,1891.55c1.184,0,1.186-1.84,0-1.84
		C-694.457,1889.71-694.459,1891.55-693.273,1891.55"/>
	<path clip-path="url(#SVGID_48_)" fill="#D09A37" d="M-673.032,1898.542c1.184,0,1.186-1.84,0-1.84
		C-674.216,1896.702-674.218,1898.542-673.032,1898.542"/>
	<path clip-path="url(#SVGID_48_)" fill="#D09A37" d="M-663.464,1911.055c1.184,0,1.186-1.841,0-1.841
		C-664.648,1909.214-664.65,1911.055-663.464,1911.055"/>
	<path clip-path="url(#SVGID_48_)" fill="#D09A37" d="M-522.229,2017.796c-2.501-0.296-2.967,3.591-0.46,3.888
		C-520.187,2021.979-519.723,2018.093-522.229,2017.796"/>
	<path clip-path="url(#SVGID_48_)" fill="#D09A37" d="M-522.478,2013.232c-1.251-0.147-1.482,1.796-0.229,1.944
		C-521.456,2015.324-521.225,2013.381-522.478,2013.232"/>
	<path clip-path="url(#SVGID_48_)" fill="#D09A37" d="M-527.265,2023.704c-1.251-0.147-1.483,1.796-0.23,1.944
		C-526.244,2025.797-526.012,2023.853-527.265,2023.704"/>
	<path clip-path="url(#SVGID_48_)" fill="#045D74" d="M-547.774,2013.787c-1.251-0.148-1.483,1.796-0.23,1.943
		C-546.753,2015.879-546.521,2013.935-547.774,2013.787"/>
	<path clip-path="url(#SVGID_48_)" fill="#045D74" d="M-556.317,1999.371c-1.251-0.147-1.483,1.796-0.23,1.944
		C-555.296,2001.464-555.064,1999.52-556.317,1999.371"/>
</g>
<g>
	<defs>
		<rect id="SVGID_49_" x="-745" y="-1464.71" width="1908.782" height="3525.99"/>
	</defs>
	<clipPath id="SVGID_50_">
		<use xlink:href="#SVGID_49_"  overflow="visible"/>
	</clipPath>
	<path clip-path="url(#SVGID_50_)" fill="#045D74" d="M-669.774,1984.594c1.9,0.335,2.424-2.617,0.521-2.953
		C-671.153,1981.306-671.677,1984.258-669.774,1984.594"/>
	<path clip-path="url(#SVGID_50_)" fill="#D09A37" d="M-690.784,1977.691c0.951,0.168,1.212-1.309,0.26-1.476
		C-691.474,1976.048-691.736,1977.523-690.784,1977.691"/>
	<path clip-path="url(#SVGID_50_)" fill="#045D74" d="M-669.297,1978.436c0.951,0.168,1.212-1.309,0.26-1.476
		C-669.987,1976.792-670.249,1978.268-669.297,1978.436"/>
	<path clip-path="url(#SVGID_50_)" fill="#045D74" d="M-667.455,1981.806c0.951,0.168,1.212-1.31,0.26-1.477
		C-668.146,1980.161-668.407,1981.637-667.455,1981.806"/>
	<path clip-path="url(#SVGID_50_)" fill="#D09A37" d="M-697.798,1995.028c0.95,0.167,1.212-1.31,0.26-1.477
		C-698.488,1993.384-698.75,1994.86-697.798,1995.028"/>
	<path clip-path="url(#SVGID_50_)" fill="#D09A37" d="M-499.363,1923.216c0,1.229,1.909,1.23,1.909,0
		C-497.454,1921.988-499.363,1921.986-499.363,1923.216"/>
	<path clip-path="url(#SVGID_50_)" fill="#D09A37" d="M-517.88,1918.437c0,1.229,1.908,1.23,1.908,0
		C-515.972,1917.209-517.88,1917.207-517.88,1918.437"/>
	<path clip-path="url(#SVGID_50_)" fill="#D09A37" d="M-503.817,1928.171c0,2.598,4.037,2.603,4.037,0
		C-499.78,1925.573-503.817,1925.569-503.817,1928.171"/>
</g>
<polyline fill="none" stroke="#D09A37" stroke-width="0.766" points="-729.995,1929.623 -705.59,1953.369 -698.334,1968.869 
	-709.877,1987.338 -656.449,2000.53 -627.427,2034.5 "/>
<polyline fill="none" stroke="#D09A37" stroke-width="0.766" points="-729.005,1932.591 -710.207,1986.678 -729.666,1973.487 "/>
<polyline fill="none" stroke="#D09A37" stroke-width="0.766" points="-731.644,1968.21 -705.26,1953.369 -730.655,1979.094 "/>
<polyline fill="none" stroke="#D09A37" stroke-width="0.766" points="-635.012,2040.766 -656.35,2001.355 -671.29,2041.59 "/>
<polyline fill="none" stroke="#D09A37" stroke-width="0.766" points="-686.461,2037.468 -657.109,2001.19 -692.068,2005.147 
	-711.526,2011.084 -736.921,2039.117 "/>
<polyline fill="none" stroke="#D09A37" stroke-width="0.766" points="-731.149,2006.467 -709.877,1987.503 -711.196,2010.589 
	-702.457,2038.623 "/>
<polyline fill="none" stroke="#D09A37" stroke-width="0.766" points="-730.49,1992.945 -711.032,2010.754 -678.546,2037.468 "/>
<polyline fill="none" stroke="#D09A37" stroke-width="0.766" points="-730.819,2008.445 -723.398,2038.128 -692.397,2005.478 
	-673.104,2014.712 -656.779,2000.86 "/>
<polyline fill="none" stroke="#D09A37" stroke-width="0.766" points="-709.712,1987.338 -692.562,2005.312 -666.673,2036.644 "/>
<polyline fill="none" stroke="#D09A37" stroke-width="0.766" points="-703.281,2036.149 -672.939,2016.361 -656.284,2041.92 "/>
<polyline fill="none" stroke="#D09A37" stroke-width="0.766" points="-431.533,1956.073 -463.483,2003.592 -441.308,1995.789 "/>
<polyline fill="none" stroke="#D09A37" stroke-width="0.766" points="-438.051,1991.189 -459.786,1970.121 -441.778,2001.463 "/>
<polyline fill="none" stroke="#D09A37" stroke-width="0.766" points="-549.971,2036.753 -519.302,2004.072 -515.098,2046.786 "/>
<g>
	<defs>
		<rect id="SVGID_51_" x="-745" y="-1464.71" width="1908.782" height="3525.99"/>
	</defs>
	<clipPath id="SVGID_52_">
		<use xlink:href="#SVGID_51_"  overflow="visible"/>
	</clipPath>
	<polyline clip-path="url(#SVGID_52_)" fill="none" stroke="#D09A37" stroke-width="0.766" points="-499.378,2046.662 
		-518.526,2004.106 -485.727,2016.834 -468.422,2027.529 -451.001,2061.104 	"/>
</g>
<polyline fill="none" stroke="#D09A37" stroke-width="0.766" points="-448.27,2028.061 -464.012,2004.306 -468.614,2026.966 
	-484.203,2051.851 "/>
<polyline fill="none" stroke="#D09A37" stroke-width="0.766" points="-445.465,2014.815 -468.815,2027.085 -507.032,2044.646 "/>
<polyline fill="none" stroke="#D09A37" stroke-width="0.766" points="-449.092,2029.89 -463.825,2056.705 -485.492,2017.236 
	-506.501,2021.255 -518.761,2003.704 "/>
<polyline fill="none" stroke="#D09A37" stroke-width="0.766" points="-464.13,2004.104 -485.291,2017.119 -518.304,2040.827 "/>
<polyline fill="none" stroke="#D09A37" stroke-width="0.766" points="-482.776,2049.669 -507.08,2022.808 -529.693,2043.285 "/>
<polyline fill="none" stroke="#D09A37" stroke-width="0.766" points="-463.971,2004.146 -518.996,2003.301 -580.59,2046.381 "/>
<polyline fill="none" stroke="#045D74" stroke-width="0.975" points="-462.088,1986.767 -489.117,1960.468 -497.153,1943.301 
	-484.369,1922.846 -543.541,1908.236 -581.724,1863.83 "/>
<polyline fill="none" stroke="#045D74" stroke-width="0.975" points="-463.184,1983.479 -484.004,1923.576 -462.453,1938.188 "/>
<polyline fill="none" stroke="#045D74" stroke-width="0.975" points="-460.262,1944.031 -489.482,1960.469 -461.357,1931.978 "/>
<polyline fill="none" stroke="#045D74" stroke-width="0.975" points="-567.284,1863.674 -543.651,1907.322 -527.104,1862.761 "/>
<polyline fill="none" stroke="#045D74" stroke-width="0.975" points="-510.303,1867.326 -542.811,1907.505 -504.094,1903.122 
	-482.543,1896.547 -454.418,1865.5 "/>
<polyline fill="none" stroke="#045D74" stroke-width="0.975" points="-460.81,1901.661 -484.368,1922.663 -482.907,1897.095 
	-492.588,1866.048 "/>
<polyline fill="none" stroke="#045D74" stroke-width="0.975" points="-461.54,1916.637 -483.09,1896.913 -519.069,1867.325 "/>
<polyline fill="none" stroke="#045D74" stroke-width="0.975" points="-461.175,1899.47 -469.393,1866.596 -503.728,1902.757 
	-525.096,1892.529 -543.176,1907.87 "/>
<polyline fill="none" stroke="#045D74" stroke-width="0.975" points="-484.552,1922.846 -503.546,1902.939 -532.219,1868.239 "/>
<polyline fill="none" stroke="#045D74" stroke-width="0.975" points="-491.674,1868.787 -525.278,1890.703 -543.724,1862.396 "/>
<g>
	<defs>
		<rect id="SVGID_53_" x="-745" y="-1464.71" width="1908.782" height="3525.99"/>
	</defs>
	<clipPath id="SVGID_54_">
		<use xlink:href="#SVGID_53_"  overflow="visible"/>
	</clipPath>
	<polyline clip-path="url(#SVGID_54_)" fill="none" stroke="#045D74" stroke-width="0.975" points="-744.747,1944.267 
		-712.494,1924.723 -700.803,1909.803 -708.658,1886.997 -647.716,1886.071 -600.522,1851.393 	"/>
</g>
<polyline fill="none" stroke="#045D74" stroke-width="0.975" points="-742.94,1941.311 -709.178,1887.626 -733.463,1897.014 "/>
<polyline fill="none" stroke="#045D74" stroke-width="0.975" points="-736.913,1902.216 -712.139,1924.805 -733.134,1890.718 "/>
<polyline fill="none" stroke="#045D74" stroke-width="0.975" points="-614.558,1847.992 -647.403,1885.206 -653.502,1838.064 "/>
<polyline fill="none" stroke="#045D74" stroke-width="0.975" points="-670.9,1838.732 -648.263,1885.195 -685.003,1872.215 
	-704.522,1860.961 -724.942,1824.382 "/>
<polyline fill="none" stroke="#045D74" stroke-width="0.975" points="-726.848,1861.055 -708.617,1886.818 -704.289,1861.576 
	-687.875,1833.503 "/>
<polyline fill="none" stroke="#045D74" stroke-width="0.975" points="-729.505,1875.811 -704.07,1861.439 -662.358,1840.704 "/>
<polyline fill="none" stroke="#045D74" stroke-width="0.975" points="-726,1859.001 -710.596,1828.819 -685.276,1871.777 
	-662.155,1866.618 -647.989,1885.633 "/>
<polyline fill="none" stroke="#045D74" stroke-width="0.975" points="-708.48,1887.037 -685.496,1871.913 -649.751,1844.553 "/>
<polyline fill="none" stroke="#045D74" stroke-width="0.975" points="-689.38,1835.966 -661.567,1864.879 -637.226,1841.446 "/>
<g>
	<defs>
		<rect id="SVGID_55_" x="-745" y="-1464.71" width="1908.782" height="3525.99"/>
	</defs>
	<clipPath id="SVGID_56_">
		<use xlink:href="#SVGID_55_"  overflow="visible"/>
	</clipPath>
	<path clip-path="url(#SVGID_56_)" fill="#D09A37" d="M-697.321,1897.622c2.368,0,2.372-3.68,0-3.68
		C-699.689,1893.942-699.693,1897.622-697.321,1897.622"/>
	<path clip-path="url(#SVGID_56_)" fill="#D09A37" d="M-696.585,1901.854c1.184,0,1.186-1.841,0-1.841
		C-697.769,1900.014-697.771,1901.854-696.585,1901.854"/>
	<path clip-path="url(#SVGID_56_)" fill="#D09A37" d="M-693.273,1891.55c1.184,0,1.186-1.84,0-1.84
		C-694.457,1889.71-694.459,1891.55-693.273,1891.55"/>
	<path clip-path="url(#SVGID_56_)" fill="#D09A37" d="M-673.032,1898.542c1.184,0,1.186-1.84,0-1.84
		C-674.216,1896.702-674.218,1898.542-673.032,1898.542"/>
	<path clip-path="url(#SVGID_56_)" fill="#D09A37" d="M-663.464,1911.055c1.184,0,1.186-1.841,0-1.841
		C-664.648,1909.214-664.65,1911.055-663.464,1911.055"/>
	<path clip-path="url(#SVGID_56_)" fill="#D09A37" d="M-522.229,2017.796c-2.501-0.296-2.967,3.591-0.46,3.888
		C-520.187,2021.979-519.723,2018.093-522.229,2017.796"/>
	<path clip-path="url(#SVGID_56_)" fill="#D09A37" d="M-522.478,2013.232c-1.251-0.147-1.482,1.796-0.229,1.944
		C-521.456,2015.324-521.225,2013.381-522.478,2013.232"/>
	<path clip-path="url(#SVGID_56_)" fill="#D09A37" d="M-527.265,2023.704c-1.251-0.147-1.483,1.796-0.23,1.944
		C-526.244,2025.797-526.012,2023.853-527.265,2023.704"/>
	<path clip-path="url(#SVGID_56_)" fill="#045D74" d="M-547.774,2013.787c-1.251-0.148-1.483,1.796-0.23,1.943
		C-546.753,2015.879-546.521,2013.935-547.774,2013.787"/>
	<path clip-path="url(#SVGID_56_)" fill="#045D74" d="M-556.317,1999.371c-1.251-0.147-1.483,1.796-0.23,1.944
		C-555.296,2001.464-555.064,1999.52-556.317,1999.371"/>
</g>
<g>
	<polyline fill="none" stroke="#D09A37" stroke-width="0.766" points="171.99,-25.183 133.228,14.655 107.928,26.499 77.778,7.656 
		56.244,94.871 -22.015,161.364 	"/>
	<polyline fill="none" stroke="#D09A37" stroke-width="0.766" points="167.146,-23.567 78.856,7.12 100.389,-24.645 	"/>
	<polyline fill="none" stroke="#D09A37" stroke-width="0.766" points="109.002,-27.875 133.229,15.194 91.237,-26.26 	"/>
	<g>
		<polyline fill="none" stroke="#D09A37" stroke-width="0.766" points="-22.015,136.023 54.898,95.032 -25.505,67.449 		"/>
		<polyline fill="none" stroke="#D09A37" stroke-width="0.766" points="-33.248,19.772 55.167,93.793 48.708,36.728 39.014,4.966 
			-6.741,-36.488 		"/>
	</g>
	<polyline fill="none" stroke="#D09A37" stroke-width="0.766" points="46.556,-27.067 77.511,7.656 39.826,5.503 -52.958,35.516 	
		"/>
	<polyline fill="none" stroke="#D09A37" stroke-width="0.766" points="68.627,-25.989 39.556,5.772 -33.248,97.021 	"/>
	<polyline fill="none" stroke="#D09A37" stroke-width="0.766" points="43.323,-26.528 -5.126,-14.414 48.17,36.189 33.095,67.682 
		55.704,94.331 	"/>
	<polyline fill="none" stroke="#D09A37" stroke-width="0.766" points="77.778,7.926 48.441,35.921 -40.991,112.794 	"/>
</g>
<g>
	<polyline fill="none" stroke="#D09A37" stroke-width="0.766" points="-20.007,453.514 17.837,490.336 29.088,514.369 
		11.189,543.009 94.036,563.465 139.039,616.141 	"/>
	<polyline fill="none" stroke="#D09A37" stroke-width="0.766" points="-18.471,458.115 10.679,541.984 -19.495,521.531 	"/>
	<polyline fill="none" stroke="#D09A37" stroke-width="0.766" points="-22.563,513.348 18.349,490.333 -21.03,530.224 	"/>
	<g>
		<polyline fill="none" stroke="#D09A37" stroke-width="0.766" points="127.277,625.855 94.19,564.743 71.023,627.132 		"/>
		<polyline fill="none" stroke="#D09A37" stroke-width="0.766" points="47.499,620.741 93.013,564.487 38.804,570.623 
			8.633,579.833 -30.746,623.297 		"/>
	</g>
	<polyline fill="none" stroke="#D09A37" stroke-width="0.766" points="-21.796,572.668 11.189,543.263 9.143,579.062 
		22.697,622.529 	"/>
	<polyline fill="none" stroke="#D09A37" stroke-width="0.766" points="-20.773,551.701 9.399,579.317 59.772,620.741 	"/>
	<polyline fill="none" stroke="#D09A37" stroke-width="0.766" points="-21.284,575.739 -9.777,621.762 38.293,571.134 
		68.209,585.454 93.524,563.979 	"/>
	<polyline fill="none" stroke="#D09A37" stroke-width="0.766" points="11.445,543.009 38.038,570.876 78.183,619.463 	"/>
	<polyline fill="none" stroke="#D09A37" stroke-width="0.766" points="21.418,618.695 68.466,588.012 94.291,627.642 	"/>
</g>
<path fill="#045D74" d="M42.345,541.441c4.14,0.664,5.183-5.768,1.031-6.434C39.235,534.344,38.195,540.775,42.345,541.441"/>
<path fill="#D09A37" d="M32.336,533.49c2.071,0.332,2.589-2.882,0.516-3.216C30.779,529.942,30.263,533.158,32.336,533.49"/>
<path fill="#045D74" d="M43.171,528.039c2.075,0.334,2.591-2.881,0.515-3.215C41.615,524.492,41.099,527.707,43.171,528.039"/>
<path fill="#045D74" d="M47.29,535.305"/>
<path fill="#045D74" d="M47.29,535.305"/>
<path fill="#045D74" d="M410.86,584.911c2.319-3.493-3.103-7.106-5.429-3.606C403.109,584.799,408.531,588.411,410.86,584.911"/>
<path fill="#D09A37" d="M394.975,583.589c1.162-1.746-1.547-3.55-2.712-1.802C391.101,583.536,393.814,585.34,394.975,583.589"/>
<path fill="#045D74" d="M361.926,572.781c1.164-1.75-1.55-3.554-2.713-1.801C358.052,572.728,360.765,574.528,361.926,572.781"/>
<path fill="#045D74" d="M411.76,566.146"/>
<path fill="#045D74" d="M411.76,566.146"/>
<path fill="#D09A37" d="M17.676,571.414c2.071,0.332,2.589-2.885,0.517-3.217C16.12,567.865,15.601,571.082,17.676,571.414"/>
<path fill="#D09A37" d="M105.838,6.741c2.18,0.349,2.725-3.033,0.542-3.384C104.199,3.007,103.655,6.391,105.838,6.741"/>
<path fill="#045D74" d="M155.036,7.671c2.184,0.352,2.728-3.032,0.542-3.384C153.397,3.938,152.854,7.322,155.036,7.671"/>
<path fill="#045D74" d="M166.874,16.886c2.182,0.35,2.728-3.035,0.543-3.384C165.238,13.152,164.692,16.536,166.874,16.886"/>
<path fill="#D09A37" d="M90.405,46.664c2.181,0.35,2.725-3.037,0.543-3.386C88.767,42.928,88.221,46.314,90.405,46.664"/>
<polyline fill="none" stroke="#045D74" stroke-width="0.975" points="445.303,257 392.247,181.351 393.234,152.389 407.283,127.01 
	373.565,87.113 "/>
<polyline fill="none" stroke="#045D74" stroke-width="0.975" points="427.646,226.363 407.53,128.251 447.229,158.906 "/>
<polyline fill="none" stroke="#045D74" stroke-width="0.975" points="447.229,192 391.698,181.201 451.405,150.065 "/>
<polyline fill="none" stroke="#045D74" stroke-width="0.975" points="426.933,1.557 374.961,86.318 399.255,89.453 434.179,88.416 
	488.925,53.455 "/>
<polyline fill="none" stroke="#045D74" stroke-width="0.975" points="464.602,104.94 407.357,126.738 433.409,89.087 
	502.44,-43.388 "/>
<line fill="none" stroke="#045D74" stroke-width="0.975" x1="457.394" y1="127.042" x2="433.211" y2="88.74"/>
<polyline fill="none" stroke="#045D74" stroke-width="0.975" points="464.95,101.511 466.076,48.979 399.95,89.055 468.85,12.997 
	374.263,86.716 "/>
<polyline fill="none" stroke="#045D74" stroke-width="0.975" points="407.011,126.936 400.149,89.402 426.933,1.557 
	530.733,-33.289 "/>
<path fill="#D09A37" d="M406.718,154.635c-0.501,1.837-1.647,2.617-1.146,0.779C406.074,153.575,407.222,152.793,406.718,154.635"/>
<path fill="#D09A37" d="M409.996,214.22c-0.501,1.837,2.355,2.618,2.857,0.78S410.499,212.38,409.996,214.22"/>
<path fill="#D09A37" d="M386.854,40.301c0.866-1.695,3.502-0.351,2.634,1.347C388.619,43.345,385.984,42,386.854,40.301"/>
<path fill="#045D74" d="M373.915,45.824c0.866-1.693,3.504-0.349,2.636,1.349S373.045,47.523,373.915,45.824"/>
<path fill="#D09A37" d="M384.202,30.316c1.833-3.584,7.41-0.743,5.572,2.852C387.941,36.754,382.362,33.91,384.202,30.316"/>
<path fill="#045D74" d="M10.421,159.915c2.07,0.331,2.591-2.884,0.516-3.216C8.866,156.367,8.347,159.583,10.421,159.915"/>
</svg>
