<?xml version="1.0" encoding="UTF-8" standalone="no"?>
<svg
   xmlns:dc="http://purl.org/dc/elements/1.1/"
   xmlns:cc="http://creativecommons.org/ns#"
   xmlns:rdf="http://www.w3.org/1999/02/22-rdf-syntax-ns#"
   xmlns:svg="http://www.w3.org/2000/svg"
   xmlns="http://www.w3.org/2000/svg"
   viewBox="0 0 1511.8134 1511.8134"
   height="1511.8134"
   width="1511.8134"
   xml:space="preserve"
   id="svg2"
   version="1.1"><metadata
     id="metadata8"><rdf:RDF><cc:Work
         rdf:about=""><dc:format>image/svg+xml</dc:format><dc:type
           rdf:resource="http://purl.org/dc/dcmitype/StillImage" /></cc:Work></rdf:RDF></metadata><defs
     id="defs6"><clipPath
       id="clipPath30"
       clipPathUnits="userSpaceOnUse"><path
         id="path28"
         d="M 0,0 H 1133.858 V 1133.858 H 0 Z" /></clipPath></defs><g
     transform="matrix(1.3333333,0,0,-1.3333333,0,1511.8133)"
     id="g10"><g
       transform="translate(512.4421,90.7428)"
       id="g12"><path
         id="path14"
         style="fill:#0a7394;fill-opacity:1;fill-rule:nonzero;stroke:none"
         d="m 0,0 -434.76,259.312 0.606,2.489 152.458,624.946 434.482,78.59 340.806,-181.89 34.452,-570.922 z M -426.804,262.648 0.599,7.726 520.815,217.1 486.898,779.155 151.649,958.079 -276.023,880.718 Z" /></g><g
       transform="translate(684.5173,122.0924)"
       id="g16"><path
         id="path18"
         style="fill:#d19d42;fill-opacity:1;fill-rule:nonzero;stroke:none"
         d="m 0,0 -1.393,0.218 -423.661,64.886 -172.222,503.281 1.254,1.498 308.9,369.55 1.943,-0.304 475.748,-74.951 0.735,-1.819 227.959,-563.705 z M -419.848,71.325 -1.732,7.289 410.776,301.132 185.607,857.935 -284.317,931.967 -589.444,566.929 Z" /></g><g
       transform="translate(512.4083,91.0139)"
       id="g20"><path
         id="path22"
         style="fill:#d19d42;fill-opacity:1;fill-rule:nonzero;stroke:none"
         d="m 0,0 -253.096,96.631 -171.909,502.358 143.589,287.053 167.013,84.221 267.554,-5.373 97.365,-51.964 111.191,-17.516 131.945,-112.697 0.095,-1.472 14.898,-246.932 82.312,-203.548 -63.952,-118.824 -0.968,-0.485 -353.672,-180.05 -0.501,-0.09 z M -247.585,101.955 0.663,7.176 l 169.458,30.868 351.801,179.101 61.377,114.037 -81.514,201.576 -14.88,246.591 -128.217,109.51 -110.409,17.395 -96.928,51.731 -264.169,5.305 -163.42,-82.41 -141.259,-282.396 z" /></g><g
       id="g24"><g
         clip-path="url(#clipPath30)"
         id="g26"><g
           transform="translate(32.5267,51.4771)"
           id="g32"><path
             id="path34"
             style="fill:#0a7394;fill-opacity:1;fill-rule:nonzero;stroke:none"
             d="M 0,0 C -6.948,0 -6.961,-10.8 0,-10.8 6.948,-10.8 6.961,0 0,0" /></g><g
           transform="translate(111.3667,40.1371)"
           id="g36"><path
             id="path38"
             style="fill:#d19d42;fill-opacity:1;fill-rule:nonzero;stroke:none"
             d="M 0,0 C -3.476,0 -3.48,-5.4 0,-5.4 3.476,-5.4 3.48,0 0,0" /></g><g
           transform="translate(34.6867,29.3372)"
           id="g40"><path
             id="path42"
             style="fill:#0a7394;fill-opacity:1;fill-rule:nonzero;stroke:none"
             d="M 0,0 C -3.476,0 -3.48,-5.4 0,-5.4 3.476,-5.4 3.48,0 0,0" /></g><g
           transform="translate(26.0467,40.1371)"
           id="g44"><path
             id="path46"
             style="fill:#0a7394;fill-opacity:1;fill-rule:nonzero;stroke:none"
             d="M 0,0 C -3.476,0 -3.48,-5.4 0,-5.4 3.476,-5.4 3.48,0 0,0" /></g><g
           transform="translate(125.4067,106.0172)"
           id="g48"><path
             id="path50"
             style="fill:#d19d42;fill-opacity:1;fill-rule:nonzero;stroke:none"
             d="M 0,0 C -3.474,0 -3.48,-5.4 0,-5.4 3.476,-5.4 3.48,0 0,0" /></g><g
           transform="translate(1101.9099,1092.7952)"
           id="g52"><path
             id="path54"
             style="fill:#d19d42;fill-opacity:1;fill-rule:nonzero;stroke:none"
             d="M 0,0 C 6.948,0 6.961,10.8 0,10.8 -6.949,10.8 -6.961,0 0,0" /></g><g
           transform="translate(1104.0699,1080.3752)"
           id="g56"><path
             id="path58"
             style="fill:#d19d42;fill-opacity:1;fill-rule:nonzero;stroke:none"
             d="M 0,0 C 3.474,0 3.48,5.4 0,5.4 -3.475,5.4 -3.48,0 0,0" /></g><g
           transform="translate(1113.7899,1110.6152)"
           id="g60"><path
             id="path62"
             style="fill:#d19d42;fill-opacity:1;fill-rule:nonzero;stroke:none"
             d="M 0,0 C 3.474,0 3.48,5.4 0,5.4 -3.475,5.4 -3.48,0 0,0" /></g></g></g></g></svg>