<?xml version="1.0" encoding="utf-8"?>
<!-- Generator: Adobe Illustrator 16.0.0, SVG Export Plug-In . SVG Version: 6.00 Build 0)  -->
<!DOCTYPE svg PUBLIC "-//W3C//DTD SVG 1.1//EN" "http://www.w3.org/Graphics/SVG/1.1/DTD/svg11.dtd">
<svg version="1.1" id="Ebene_1" xmlns="http://www.w3.org/2000/svg" xmlns:xlink="http://www.w3.org/1999/xlink" x="0px" y="0px"
	 width="180px" height="167.81px" viewBox="0 0 180 167.81" enable-background="new 0 0 180 167.81" xml:space="preserve">
<g>
	<polyline fill="none" stroke="#D09A37" stroke-width="0.766" points="82.521,-10.004 64.166,8.861 52.186,14.469 37.908,5.546 
		27.711,46.846 -9.348,78.334 	"/>
	<polyline fill="none" stroke="#D09A37" stroke-width="0.766" points="80.228,-9.239 38.419,5.292 48.615,-9.75 	"/>
	<polyline fill="none" stroke="#D09A37" stroke-width="0.766" points="52.694,-11.279 64.167,9.116 44.282,-10.514 	"/>
	<g>
		<polyline fill="none" stroke="#D09A37" stroke-width="0.766" points="-9.348,66.334 27.074,46.923 -11.001,33.861 		"/>
		<polyline fill="none" stroke="#D09A37" stroke-width="0.766" points="-14.667,11.284 27.201,46.336 24.143,19.313 19.552,4.272 
			-2.115,-15.358 		"/>
	</g>
	<polyline fill="none" stroke="#D09A37" stroke-width="0.766" points="23.123,-10.896 37.782,5.546 19.936,4.527 -24.001,18.739 	
		"/>
	<polyline fill="none" stroke="#D09A37" stroke-width="0.766" points="33.575,-10.386 19.809,4.654 -14.667,47.864 	"/>
	<polyline fill="none" stroke="#D09A37" stroke-width="0.766" points="21.592,-10.641 -1.351,-4.905 23.888,19.058 16.749,33.971 
		27.455,46.591 	"/>
	<polyline fill="none" stroke="#D09A37" stroke-width="0.766" points="37.908,5.674 24.016,18.931 -18.334,55.334 	"/>
</g>
<g>
	<polyline fill="none" stroke="#D09A37" stroke-width="0.766" points="-8.138,104.925 9.783,122.361 15.111,133.742 6.635,147.305 
		45.867,156.991 67.177,181.936 	"/>
	<polyline fill="none" stroke="#D09A37" stroke-width="0.766" points="-7.411,107.104 6.394,146.819 -7.896,137.134 	"/>
	<polyline fill="none" stroke="#D09A37" stroke-width="0.766" points="-9.348,133.259 10.025,122.36 -8.622,141.25 	"/>
	<g>
		<polyline fill="none" stroke="#D09A37" stroke-width="0.766" points="61.607,186.536 45.939,157.597 34.969,187.141 		"/>
		<polyline fill="none" stroke="#D09A37" stroke-width="0.766" points="23.829,184.114 45.382,157.476 19.712,160.381 
			5.424,164.742 -13.223,185.324 		"/>
	</g>
	<polyline fill="none" stroke="#D09A37" stroke-width="0.766" points="-8.985,161.35 6.635,147.425 5.666,164.377 12.084,184.961 	
		"/>
	<polyline fill="none" stroke="#D09A37" stroke-width="0.766" points="-8.5,151.421 5.787,164.498 29.641,184.114 	"/>
	<polyline fill="none" stroke="#D09A37" stroke-width="0.766" points="-8.743,162.804 -3.293,184.598 19.47,160.623 33.636,167.404 
		45.624,157.234 	"/>
	<polyline fill="none" stroke="#D09A37" stroke-width="0.766" points="6.756,147.305 19.349,160.501 38.359,183.509 	"/>
	<polyline fill="none" stroke="#D09A37" stroke-width="0.766" points="11.479,183.146 33.758,168.615 45.987,187.382 	"/>
</g>
<path fill="#045D74" d="M21.389,146.562c1.96,0.314,2.454-2.731,0.488-3.047C19.916,143.201,19.423,146.247,21.389,146.562"/>
<path fill="#D09A37" d="M16.649,142.797c0.98,0.157,1.226-1.364,0.244-1.522C15.912,141.117,15.667,142.64,16.649,142.797"/>
<path fill="#045D74" d="M21.78,140.216c0.982,0.158,1.227-1.364,0.244-1.522C21.043,138.536,20.798,140.059,21.78,140.216"/>
<path fill="#045D74" d="M23.73,143.656"/>
<path fill="#045D74" d="M23.73,143.656"/>
<path fill="#045D74" d="M12.129,68.238c-0.442,1.936,2.564,2.628,3.009,0.688C15.58,66.989,12.573,66.297,12.129,68.238"/>
<path fill="#D09A37" d="M19.386,66.162c-0.222,0.968,1.28,1.313,1.503,0.344C21.111,65.537,19.607,65.192,19.386,66.162"/>
<path fill="#045D74" d="M35.835,65.412c-0.223,0.97,1.281,1.314,1.503,0.343C37.56,64.787,36.057,64.443,35.835,65.412"/>
<path fill="#045D74" d="M14.875,76.7"/>
<path fill="#045D74" d="M14.875,76.7"/>
<path fill="#D09A37" d="M9.707,160.756c0.981,0.157,1.226-1.366,0.245-1.523S8.724,160.599,9.707,160.756"/>
<path fill="#045D74" d="M74.082,12.235c2.063,0.331,2.583-2.875,0.514-3.208C72.531,8.696,72.013,11.903,74.082,12.235"/>
<path fill="#D09A37" d="M51.196,5.113c1.032,0.166,1.291-1.436,0.257-1.603C50.42,3.345,50.162,4.947,51.196,5.113"/>
<path fill="#045D74" d="M74.493,5.554c1.034,0.167,1.292-1.436,0.256-1.603C73.717,3.786,73.46,5.388,74.493,5.554"/>
<path fill="#045D74" d="M76.546,9.175c1.033,0.166,1.292-1.437,0.257-1.603C75.771,7.407,75.513,9.01,76.546,9.175"/>
<path fill="#D09A37" d="M43.888,24.018c1.033,0.166,1.291-1.438,0.257-1.604S42.854,23.853,43.888,24.018"/>
<polyline fill="none" stroke="#045D74" stroke-width="0.975" points="188.584,138.885 168.737,119.573 162.836,106.968 
	172.224,91.948 139.773,81.221 "/>
<polyline fill="none" stroke="#045D74" stroke-width="0.975" points="187.779,136.471 172.491,92.484 188.315,103.213 "/>
<polyline fill="none" stroke="#045D74" stroke-width="0.975" points="189.926,107.506 168.468,119.573 189.121,98.653 "/>
<polyline fill="none" stroke="#045D74" stroke-width="0.975" points="159.425,33.861 140.312,80.684 157.739,77.465 173.564,72.637 
	194.216,49.84 "/>
<polyline fill="none" stroke="#045D74" stroke-width="0.975" points="189.523,76.393 172.224,91.814 173.297,73.04 188.315,3.914 
	"/>
<line fill="none" stroke="#045D74" stroke-width="0.975" x1="188.986" y1="87.389" x2="173.163" y2="72.906"/>
<polyline fill="none" stroke="#045D74" stroke-width="0.975" points="189.255,74.783 183.22,50.645 158.008,77.197 180,33.861 
	140.042,80.952 "/>
<polyline fill="none" stroke="#045D74" stroke-width="0.975" points="172.09,91.948 158.142,77.331 159.425,33.861 202.5,5 "/>
<path fill="#D09A37" d="M161.214,92.221c0,0.901,1.4,0.902,1.4,0S161.214,91.316,161.214,92.221"/>
<path fill="#D09A37" d="M147.616,88.711c0,0.901,1.402,0.902,1.402,0S147.616,87.808,147.616,88.711"/>
<path fill="#D09A37" d="M157.942,95.858c0,1.907,2.965,1.911,2.965,0C160.907,93.951,157.942,93.947,157.942,95.858"/>
<path fill="#D09A37" d="M174.582,8.605c0.41-0.803,1.658-0.166,1.247,0.638S174.17,9.41,174.582,8.605"/>
<path fill="#045D74" d="M160.878,5.538c0.41-0.802,1.659-0.165,1.248,0.639S160.466,6.342,160.878,5.538"/>
<path fill="#D09A37" d="M173.326,3.876c0.868-1.697,3.509-0.352,2.639,1.351C175.097,6.925,172.455,5.579,173.326,3.876"/>
<path fill="#045D74" d="M168.346,161.377c0.98,0.157,1.227-1.365,0.244-1.522C167.609,159.697,167.363,161.22,168.346,161.377"/>
</svg>
